%FSLAX45Y45*%
G04 Gerber Fmt 4.5, Leading zero omitted, Abs format (unit mm)*
G04 Created by KiCad (PCBNEW 4.0.2-stable) date Tuesday, July 12, 2016 'PMt' 04:22:17 PM*
%MOMM*%
G01*
G04 APERTURE LIST*
%ADD10C,0.127000*%
%ADD11C,0.100000*%
%ADD12C,0.200000*%
%ADD13C,0.300000*%
G04 APERTURE END LIST*
D10*
D11*
X15252700Y-11099800D02*
X15252700Y-10261600D01*
X14300200Y-10261600D02*
X14300200Y-11099800D01*
X14300000Y-11099800D02*
X15250000Y-11099800D01*
X14300000Y-10261600D02*
X15250000Y-10261600D01*
D12*
X14414300Y-10456300D02*
X14439700Y-10481700D01*
X14439700Y-10456300D02*
X14414300Y-10481700D01*
X14414300Y-10616300D02*
X14439700Y-10641700D01*
X14439700Y-10616300D02*
X14414300Y-10641700D01*
X14414300Y-10766300D02*
X14439700Y-10791700D01*
X14439700Y-10766300D02*
X14414300Y-10791700D01*
X14514300Y-10906300D02*
X14539700Y-10931700D01*
X14539700Y-10906300D02*
X14514300Y-10931700D01*
X14614300Y-10906300D02*
X14639700Y-10931700D01*
X14639700Y-10906300D02*
X14614300Y-10931700D01*
X14714300Y-10906300D02*
X14739700Y-10931700D01*
X14739700Y-10906300D02*
X14714300Y-10931700D01*
X14814300Y-10906300D02*
X14839700Y-10931700D01*
X14839700Y-10906300D02*
X14814300Y-10931700D01*
X14914300Y-10906300D02*
X14939700Y-10931700D01*
X14939700Y-10906300D02*
X14914300Y-10931700D01*
X15014300Y-10906300D02*
X15039700Y-10931700D01*
X15039700Y-10906300D02*
X15014300Y-10931700D01*
X15114300Y-10466300D02*
X15139700Y-10491700D01*
X15139700Y-10466300D02*
X15114300Y-10491700D01*
X15114300Y-10616300D02*
X15139700Y-10641700D01*
X15139700Y-10616300D02*
X15114300Y-10641700D01*
X15114300Y-10766300D02*
X15139700Y-10791700D01*
X15139700Y-10766300D02*
X15114300Y-10791700D01*
D13*
X14566428Y-11570514D02*
X14566428Y-11270514D01*
X14637857Y-11270514D01*
X14680714Y-11284800D01*
X14709286Y-11313371D01*
X14723571Y-11341943D01*
X14737857Y-11399086D01*
X14737857Y-11441943D01*
X14723571Y-11499086D01*
X14709286Y-11527657D01*
X14680714Y-11556229D01*
X14637857Y-11570514D01*
X14566428Y-11570514D01*
X14866428Y-11570514D02*
X14866428Y-11370514D01*
X14866428Y-11427657D02*
X14880714Y-11399086D01*
X14895000Y-11384800D01*
X14923571Y-11370514D01*
X14952143Y-11370514D01*
X15052143Y-11570514D02*
X15052143Y-11370514D01*
X15052143Y-11270514D02*
X15037857Y-11284800D01*
X15052143Y-11299086D01*
X15066428Y-11284800D01*
X15052143Y-11270514D01*
X15052143Y-11299086D01*
X15237857Y-11570514D02*
X15209286Y-11556229D01*
X15195000Y-11527657D01*
X15195000Y-11270514D01*
X15395000Y-11570514D02*
X15366428Y-11556229D01*
X15352143Y-11527657D01*
X15352143Y-11270514D01*
X15737857Y-11570514D02*
X15737857Y-11270514D01*
X15837857Y-11484800D01*
X15937857Y-11270514D01*
X15937857Y-11570514D01*
X16209286Y-11570514D02*
X16209286Y-11413371D01*
X16195000Y-11384800D01*
X16166428Y-11370514D01*
X16109286Y-11370514D01*
X16080714Y-11384800D01*
X16209286Y-11556229D02*
X16180714Y-11570514D01*
X16109286Y-11570514D01*
X16080714Y-11556229D01*
X16066428Y-11527657D01*
X16066428Y-11499086D01*
X16080714Y-11470514D01*
X16109286Y-11456229D01*
X16180714Y-11456229D01*
X16209286Y-11441943D01*
X16352143Y-11370514D02*
X16352143Y-11670514D01*
X16352143Y-11384800D02*
X16380714Y-11370514D01*
X16437857Y-11370514D01*
X16466428Y-11384800D01*
X16480714Y-11399086D01*
X16495000Y-11427657D01*
X16495000Y-11513371D01*
X16480714Y-11541943D01*
X16466428Y-11556229D01*
X16437857Y-11570514D01*
X16380714Y-11570514D01*
X16352143Y-11556229D01*
X16623571Y-11541943D02*
X16637857Y-11556229D01*
X16623571Y-11570514D01*
X16609286Y-11556229D01*
X16623571Y-11541943D01*
X16623571Y-11570514D01*
X16623571Y-11384800D02*
X16637857Y-11399086D01*
X16623571Y-11413371D01*
X16609286Y-11399086D01*
X16623571Y-11384800D01*
X16623571Y-11413371D01*
X14269600Y-12052100D02*
X14295000Y-12077500D01*
X14295000Y-12052100D02*
X14269600Y-12077500D01*
X14623571Y-11900514D02*
X14652143Y-11900514D01*
X14680714Y-11914800D01*
X14695000Y-11929086D01*
X14709286Y-11957657D01*
X14723571Y-12014800D01*
X14723571Y-12086229D01*
X14709286Y-12143371D01*
X14695000Y-12171943D01*
X14680714Y-12186229D01*
X14652143Y-12200514D01*
X14623571Y-12200514D01*
X14595000Y-12186229D01*
X14580714Y-12171943D01*
X14566428Y-12143371D01*
X14552143Y-12086229D01*
X14552143Y-12014800D01*
X14566428Y-11957657D01*
X14580714Y-11929086D01*
X14595000Y-11914800D01*
X14623571Y-11900514D01*
X14852143Y-12171943D02*
X14866428Y-12186229D01*
X14852143Y-12200514D01*
X14837857Y-12186229D01*
X14852143Y-12171943D01*
X14852143Y-12200514D01*
X14980714Y-11929086D02*
X14995000Y-11914800D01*
X15023571Y-11900514D01*
X15095000Y-11900514D01*
X15123571Y-11914800D01*
X15137857Y-11929086D01*
X15152143Y-11957657D01*
X15152143Y-11986229D01*
X15137857Y-12029086D01*
X14966428Y-12200514D01*
X15152143Y-12200514D01*
X15423571Y-11900514D02*
X15280714Y-11900514D01*
X15266428Y-12043371D01*
X15280714Y-12029086D01*
X15309286Y-12014800D01*
X15380714Y-12014800D01*
X15409286Y-12029086D01*
X15423571Y-12043371D01*
X15437857Y-12071943D01*
X15437857Y-12143371D01*
X15423571Y-12171943D01*
X15409286Y-12186229D01*
X15380714Y-12200514D01*
X15309286Y-12200514D01*
X15280714Y-12186229D01*
X15266428Y-12171943D01*
X15566428Y-12200514D02*
X15566428Y-12000514D01*
X15566428Y-12029086D02*
X15580714Y-12014800D01*
X15609286Y-12000514D01*
X15652143Y-12000514D01*
X15680714Y-12014800D01*
X15695000Y-12043371D01*
X15695000Y-12200514D01*
X15695000Y-12043371D02*
X15709286Y-12014800D01*
X15737857Y-12000514D01*
X15780714Y-12000514D01*
X15809286Y-12014800D01*
X15823571Y-12043371D01*
X15823571Y-12200514D01*
X15966428Y-12200514D02*
X15966428Y-12000514D01*
X15966428Y-12029086D02*
X15980714Y-12014800D01*
X16009286Y-12000514D01*
X16052143Y-12000514D01*
X16080714Y-12014800D01*
X16095000Y-12043371D01*
X16095000Y-12200514D01*
X16095000Y-12043371D02*
X16109286Y-12014800D01*
X16137857Y-12000514D01*
X16180714Y-12000514D01*
X16209286Y-12014800D01*
X16223571Y-12043371D01*
X16223571Y-12200514D01*
X16809286Y-11886229D02*
X16552143Y-12271943D01*
X17195000Y-11900514D02*
X17223571Y-11900514D01*
X17252143Y-11914800D01*
X17266428Y-11929086D01*
X17280714Y-11957657D01*
X17295000Y-12014800D01*
X17295000Y-12086229D01*
X17280714Y-12143371D01*
X17266428Y-12171943D01*
X17252143Y-12186229D01*
X17223571Y-12200514D01*
X17195000Y-12200514D01*
X17166428Y-12186229D01*
X17152143Y-12171943D01*
X17137857Y-12143371D01*
X17123571Y-12086229D01*
X17123571Y-12014800D01*
X17137857Y-11957657D01*
X17152143Y-11929086D01*
X17166428Y-11914800D01*
X17195000Y-11900514D01*
X17423571Y-12171943D02*
X17437857Y-12186229D01*
X17423571Y-12200514D01*
X17409286Y-12186229D01*
X17423571Y-12171943D01*
X17423571Y-12200514D01*
X17623571Y-11900514D02*
X17652143Y-11900514D01*
X17680714Y-11914800D01*
X17695000Y-11929086D01*
X17709286Y-11957657D01*
X17723571Y-12014800D01*
X17723571Y-12086229D01*
X17709286Y-12143371D01*
X17695000Y-12171943D01*
X17680714Y-12186229D01*
X17652143Y-12200514D01*
X17623571Y-12200514D01*
X17595000Y-12186229D01*
X17580714Y-12171943D01*
X17566428Y-12143371D01*
X17552143Y-12086229D01*
X17552143Y-12014800D01*
X17566428Y-11957657D01*
X17580714Y-11929086D01*
X17595000Y-11914800D01*
X17623571Y-11900514D01*
X18009286Y-12200514D02*
X17837857Y-12200514D01*
X17923571Y-12200514D02*
X17923571Y-11900514D01*
X17895000Y-11943371D01*
X17866428Y-11971943D01*
X17837857Y-11986229D01*
X18195000Y-11900514D02*
X18223571Y-11900514D01*
X18252143Y-11914800D01*
X18266428Y-11929086D01*
X18280714Y-11957657D01*
X18295000Y-12014800D01*
X18295000Y-12086229D01*
X18280714Y-12143371D01*
X18266428Y-12171943D01*
X18252143Y-12186229D01*
X18223571Y-12200514D01*
X18195000Y-12200514D01*
X18166428Y-12186229D01*
X18152143Y-12171943D01*
X18137857Y-12143371D01*
X18123571Y-12086229D01*
X18123571Y-12014800D01*
X18137857Y-11957657D01*
X18152143Y-11929086D01*
X18166428Y-11914800D01*
X18195000Y-11900514D01*
X18409286Y-11900514D02*
X18409286Y-11957657D01*
X18523571Y-11900514D02*
X18523571Y-11957657D01*
X18966428Y-12314800D02*
X18952143Y-12300514D01*
X18923571Y-12257657D01*
X18909286Y-12229086D01*
X18895000Y-12186229D01*
X18880714Y-12114800D01*
X18880714Y-12057657D01*
X18895000Y-11986229D01*
X18909286Y-11943371D01*
X18923571Y-11914800D01*
X18952143Y-11871943D01*
X18966428Y-11857657D01*
X19237857Y-12200514D02*
X19066428Y-12200514D01*
X19152143Y-12200514D02*
X19152143Y-11900514D01*
X19123571Y-11943371D01*
X19095000Y-11971943D01*
X19066428Y-11986229D01*
X19352143Y-11929086D02*
X19366428Y-11914800D01*
X19395000Y-11900514D01*
X19466428Y-11900514D01*
X19495000Y-11914800D01*
X19509286Y-11929086D01*
X19523571Y-11957657D01*
X19523571Y-11986229D01*
X19509286Y-12029086D01*
X19337857Y-12200514D01*
X19523571Y-12200514D01*
X19880714Y-12200514D02*
X19880714Y-11900514D01*
X20009286Y-12200514D02*
X20009286Y-12043371D01*
X19995000Y-12014800D01*
X19966428Y-12000514D01*
X19923571Y-12000514D01*
X19895000Y-12014800D01*
X19880714Y-12029086D01*
X20195000Y-12200514D02*
X20166428Y-12186229D01*
X20152143Y-12171943D01*
X20137857Y-12143371D01*
X20137857Y-12057657D01*
X20152143Y-12029086D01*
X20166428Y-12014800D01*
X20195000Y-12000514D01*
X20237857Y-12000514D01*
X20266428Y-12014800D01*
X20280714Y-12029086D01*
X20295000Y-12057657D01*
X20295000Y-12143371D01*
X20280714Y-12171943D01*
X20266428Y-12186229D01*
X20237857Y-12200514D01*
X20195000Y-12200514D01*
X20466428Y-12200514D02*
X20437857Y-12186229D01*
X20423571Y-12157657D01*
X20423571Y-11900514D01*
X20695000Y-12186229D02*
X20666429Y-12200514D01*
X20609286Y-12200514D01*
X20580714Y-12186229D01*
X20566429Y-12157657D01*
X20566429Y-12043371D01*
X20580714Y-12014800D01*
X20609286Y-12000514D01*
X20666429Y-12000514D01*
X20695000Y-12014800D01*
X20709286Y-12043371D01*
X20709286Y-12071943D01*
X20566429Y-12100514D01*
X20823571Y-12186229D02*
X20852143Y-12200514D01*
X20909286Y-12200514D01*
X20937857Y-12186229D01*
X20952143Y-12157657D01*
X20952143Y-12143371D01*
X20937857Y-12114800D01*
X20909286Y-12100514D01*
X20866429Y-12100514D01*
X20837857Y-12086229D01*
X20823571Y-12057657D01*
X20823571Y-12043371D01*
X20837857Y-12014800D01*
X20866429Y-12000514D01*
X20909286Y-12000514D01*
X20937857Y-12014800D01*
X21052143Y-12314800D02*
X21066429Y-12300514D01*
X21095000Y-12257657D01*
X21109286Y-12229086D01*
X21123571Y-12186229D01*
X21137857Y-12114800D01*
X21137857Y-12057657D01*
X21123571Y-11986229D01*
X21109286Y-11943371D01*
X21095000Y-11914800D01*
X21066429Y-11871943D01*
X21052143Y-11857657D01*
M02*
