G04 #@! TF.FileFunction,Legend,Top*
%FSLAX46Y46*%
G04 Gerber Fmt 4.6, Leading zero omitted, Abs format (unit mm)*
G04 Created by KiCad (PCBNEW 4.0.2-stable) date Friday, July 22, 2016 'PMt' 02:11:42 PM*
%MOMM*%
G01*
G04 APERTURE LIST*
%ADD10C,0.100000*%
%ADD11C,0.121000*%
%ADD12C,0.150000*%
G04 APERTURE END LIST*
D10*
D11*
X155012572Y-103704571D02*
X155121429Y-103740857D01*
X155157714Y-103777143D01*
X155194000Y-103849714D01*
X155194000Y-103958571D01*
X155157714Y-104031143D01*
X155121429Y-104067429D01*
X155048857Y-104103714D01*
X154758572Y-104103714D01*
X154758572Y-103341714D01*
X155012572Y-103341714D01*
X155085143Y-103378000D01*
X155121429Y-103414286D01*
X155157714Y-103486857D01*
X155157714Y-103559429D01*
X155121429Y-103632000D01*
X155085143Y-103668286D01*
X155012572Y-103704571D01*
X154758572Y-103704571D01*
X155448000Y-103341714D02*
X155919714Y-103341714D01*
X155665714Y-103632000D01*
X155774572Y-103632000D01*
X155847143Y-103668286D01*
X155883429Y-103704571D01*
X155919714Y-103777143D01*
X155919714Y-103958571D01*
X155883429Y-104031143D01*
X155847143Y-104067429D01*
X155774572Y-104103714D01*
X155556857Y-104103714D01*
X155484286Y-104067429D01*
X155448000Y-104031143D01*
X155012572Y-106117571D02*
X155121429Y-106153857D01*
X155157714Y-106190143D01*
X155194000Y-106262714D01*
X155194000Y-106371571D01*
X155157714Y-106444143D01*
X155121429Y-106480429D01*
X155048857Y-106516714D01*
X154758572Y-106516714D01*
X154758572Y-105754714D01*
X155012572Y-105754714D01*
X155085143Y-105791000D01*
X155121429Y-105827286D01*
X155157714Y-105899857D01*
X155157714Y-105972429D01*
X155121429Y-106045000D01*
X155085143Y-106081286D01*
X155012572Y-106117571D01*
X154758572Y-106117571D01*
X155484286Y-105827286D02*
X155520572Y-105791000D01*
X155593143Y-105754714D01*
X155774572Y-105754714D01*
X155847143Y-105791000D01*
X155883429Y-105827286D01*
X155919714Y-105899857D01*
X155919714Y-105972429D01*
X155883429Y-106081286D01*
X155448000Y-106516714D01*
X155919714Y-106516714D01*
X155012572Y-108149571D02*
X155121429Y-108185857D01*
X155157714Y-108222143D01*
X155194000Y-108294714D01*
X155194000Y-108403571D01*
X155157714Y-108476143D01*
X155121429Y-108512429D01*
X155048857Y-108548714D01*
X154758572Y-108548714D01*
X154758572Y-107786714D01*
X155012572Y-107786714D01*
X155085143Y-107823000D01*
X155121429Y-107859286D01*
X155157714Y-107931857D01*
X155157714Y-108004429D01*
X155121429Y-108077000D01*
X155085143Y-108113286D01*
X155012572Y-108149571D01*
X154758572Y-108149571D01*
X155919714Y-108548714D02*
X155484286Y-108548714D01*
X155702000Y-108548714D02*
X155702000Y-107786714D01*
X155629429Y-107895571D01*
X155556857Y-107968143D01*
X155484286Y-108004429D01*
X153089429Y-111850714D02*
X153524858Y-111850714D01*
X153307144Y-112612714D02*
X153307144Y-111850714D01*
X154178000Y-112612714D02*
X153742572Y-112612714D01*
X153960286Y-112612714D02*
X153960286Y-111850714D01*
X153887715Y-111959571D01*
X153815143Y-112032143D01*
X153742572Y-112068429D01*
X150803429Y-111850714D02*
X151238858Y-111850714D01*
X151021144Y-112612714D02*
X151021144Y-111850714D01*
X151456572Y-111923286D02*
X151492858Y-111887000D01*
X151565429Y-111850714D01*
X151746858Y-111850714D01*
X151819429Y-111887000D01*
X151855715Y-111923286D01*
X151892000Y-111995857D01*
X151892000Y-112068429D01*
X151855715Y-112177286D01*
X151420286Y-112612714D01*
X151892000Y-112612714D01*
X148517429Y-111850714D02*
X148952858Y-111850714D01*
X148735144Y-112612714D02*
X148735144Y-111850714D01*
X149134286Y-111850714D02*
X149606000Y-111850714D01*
X149352000Y-112141000D01*
X149460858Y-112141000D01*
X149533429Y-112177286D01*
X149569715Y-112213571D01*
X149606000Y-112286143D01*
X149606000Y-112467571D01*
X149569715Y-112540143D01*
X149533429Y-112576429D01*
X149460858Y-112612714D01*
X149243143Y-112612714D01*
X149170572Y-112576429D01*
X149134286Y-112540143D01*
X145977429Y-111850714D02*
X146412858Y-111850714D01*
X146195144Y-112612714D02*
X146195144Y-111850714D01*
X146993429Y-112104714D02*
X146993429Y-112612714D01*
X146812000Y-111814429D02*
X146630572Y-112358714D01*
X147102286Y-112358714D01*
X143691429Y-111850714D02*
X144126858Y-111850714D01*
X143909144Y-112612714D02*
X143909144Y-111850714D01*
X144743715Y-111850714D02*
X144380858Y-111850714D01*
X144344572Y-112213571D01*
X144380858Y-112177286D01*
X144453429Y-112141000D01*
X144634858Y-112141000D01*
X144707429Y-112177286D01*
X144743715Y-112213571D01*
X144780000Y-112286143D01*
X144780000Y-112467571D01*
X144743715Y-112540143D01*
X144707429Y-112576429D01*
X144634858Y-112612714D01*
X144453429Y-112612714D01*
X144380858Y-112576429D01*
X144344572Y-112540143D01*
X141405429Y-111850714D02*
X141840858Y-111850714D01*
X141623144Y-112612714D02*
X141623144Y-111850714D01*
X142421429Y-111850714D02*
X142276286Y-111850714D01*
X142203715Y-111887000D01*
X142167429Y-111923286D01*
X142094858Y-112032143D01*
X142058572Y-112177286D01*
X142058572Y-112467571D01*
X142094858Y-112540143D01*
X142131143Y-112576429D01*
X142203715Y-112612714D01*
X142348858Y-112612714D01*
X142421429Y-112576429D01*
X142457715Y-112540143D01*
X142494000Y-112467571D01*
X142494000Y-112286143D01*
X142457715Y-112213571D01*
X142421429Y-112177286D01*
X142348858Y-112141000D01*
X142203715Y-112141000D01*
X142131143Y-112177286D01*
X142094858Y-112213571D01*
X142058572Y-112286143D01*
X139772572Y-108149571D02*
X139881429Y-108185857D01*
X139917714Y-108222143D01*
X139954000Y-108294714D01*
X139954000Y-108403571D01*
X139917714Y-108476143D01*
X139881429Y-108512429D01*
X139808857Y-108548714D01*
X139518572Y-108548714D01*
X139518572Y-107786714D01*
X139772572Y-107786714D01*
X139845143Y-107823000D01*
X139881429Y-107859286D01*
X139917714Y-107931857D01*
X139917714Y-108004429D01*
X139881429Y-108077000D01*
X139845143Y-108113286D01*
X139772572Y-108149571D01*
X139518572Y-108149571D01*
X140607143Y-107786714D02*
X140462000Y-107786714D01*
X140389429Y-107823000D01*
X140353143Y-107859286D01*
X140280572Y-107968143D01*
X140244286Y-108113286D01*
X140244286Y-108403571D01*
X140280572Y-108476143D01*
X140316857Y-108512429D01*
X140389429Y-108548714D01*
X140534572Y-108548714D01*
X140607143Y-108512429D01*
X140643429Y-108476143D01*
X140679714Y-108403571D01*
X140679714Y-108222143D01*
X140643429Y-108149571D01*
X140607143Y-108113286D01*
X140534572Y-108077000D01*
X140389429Y-108077000D01*
X140316857Y-108113286D01*
X140280572Y-108149571D01*
X140244286Y-108222143D01*
X139772572Y-105990571D02*
X139881429Y-106026857D01*
X139917714Y-106063143D01*
X139954000Y-106135714D01*
X139954000Y-106244571D01*
X139917714Y-106317143D01*
X139881429Y-106353429D01*
X139808857Y-106389714D01*
X139518572Y-106389714D01*
X139518572Y-105627714D01*
X139772572Y-105627714D01*
X139845143Y-105664000D01*
X139881429Y-105700286D01*
X139917714Y-105772857D01*
X139917714Y-105845429D01*
X139881429Y-105918000D01*
X139845143Y-105954286D01*
X139772572Y-105990571D01*
X139518572Y-105990571D01*
X140643429Y-105627714D02*
X140280572Y-105627714D01*
X140244286Y-105990571D01*
X140280572Y-105954286D01*
X140353143Y-105918000D01*
X140534572Y-105918000D01*
X140607143Y-105954286D01*
X140643429Y-105990571D01*
X140679714Y-106063143D01*
X140679714Y-106244571D01*
X140643429Y-106317143D01*
X140607143Y-106353429D01*
X140534572Y-106389714D01*
X140353143Y-106389714D01*
X140280572Y-106353429D01*
X140244286Y-106317143D01*
X139772572Y-103831571D02*
X139881429Y-103867857D01*
X139917714Y-103904143D01*
X139954000Y-103976714D01*
X139954000Y-104085571D01*
X139917714Y-104158143D01*
X139881429Y-104194429D01*
X139808857Y-104230714D01*
X139518572Y-104230714D01*
X139518572Y-103468714D01*
X139772572Y-103468714D01*
X139845143Y-103505000D01*
X139881429Y-103541286D01*
X139917714Y-103613857D01*
X139917714Y-103686429D01*
X139881429Y-103759000D01*
X139845143Y-103795286D01*
X139772572Y-103831571D01*
X139518572Y-103831571D01*
X140607143Y-103722714D02*
X140607143Y-104230714D01*
X140425714Y-103432429D02*
X140244286Y-103976714D01*
X140716000Y-103976714D01*
D12*
X133850757Y-93526429D02*
X133342757Y-92800714D01*
X132979900Y-93526429D02*
X132979900Y-92002429D01*
X133560472Y-92002429D01*
X133705614Y-92075000D01*
X133778186Y-92147571D01*
X133850757Y-92292714D01*
X133850757Y-92510429D01*
X133778186Y-92655571D01*
X133705614Y-92728143D01*
X133560472Y-92800714D01*
X132979900Y-92800714D01*
X134503900Y-93526429D02*
X134503900Y-92002429D01*
X134503900Y-92728143D02*
X135374757Y-92728143D01*
X135374757Y-93526429D02*
X135374757Y-92002429D01*
X136100471Y-93526429D02*
X136100471Y-92002429D01*
X136463328Y-92002429D01*
X136681043Y-92075000D01*
X136826185Y-92220143D01*
X136898757Y-92365286D01*
X136971328Y-92655571D01*
X136971328Y-92873286D01*
X136898757Y-93163571D01*
X136826185Y-93308714D01*
X136681043Y-93453857D01*
X136463328Y-93526429D01*
X136100471Y-93526429D01*
X137551900Y-92147571D02*
X137624471Y-92075000D01*
X137769614Y-92002429D01*
X138132471Y-92002429D01*
X138277614Y-92075000D01*
X138350185Y-92147571D01*
X138422757Y-92292714D01*
X138422757Y-92437857D01*
X138350185Y-92655571D01*
X137479328Y-93526429D01*
X138422757Y-93526429D01*
X139366186Y-92002429D02*
X139511329Y-92002429D01*
X139656472Y-92075000D01*
X139729043Y-92147571D01*
X139801614Y-92292714D01*
X139874186Y-92583000D01*
X139874186Y-92945857D01*
X139801614Y-93236143D01*
X139729043Y-93381286D01*
X139656472Y-93453857D01*
X139511329Y-93526429D01*
X139366186Y-93526429D01*
X139221043Y-93453857D01*
X139148472Y-93381286D01*
X139075900Y-93236143D01*
X139003329Y-92945857D01*
X139003329Y-92583000D01*
X139075900Y-92292714D01*
X139148472Y-92147571D01*
X139221043Y-92075000D01*
X139366186Y-92002429D01*
X140817615Y-92002429D02*
X140962758Y-92002429D01*
X141107901Y-92075000D01*
X141180472Y-92147571D01*
X141253043Y-92292714D01*
X141325615Y-92583000D01*
X141325615Y-92945857D01*
X141253043Y-93236143D01*
X141180472Y-93381286D01*
X141107901Y-93453857D01*
X140962758Y-93526429D01*
X140817615Y-93526429D01*
X140672472Y-93453857D01*
X140599901Y-93381286D01*
X140527329Y-93236143D01*
X140454758Y-92945857D01*
X140454758Y-92583000D01*
X140527329Y-92292714D01*
X140599901Y-92147571D01*
X140672472Y-92075000D01*
X140817615Y-92002429D01*
X142269044Y-92002429D02*
X142414187Y-92002429D01*
X142559330Y-92075000D01*
X142631901Y-92147571D01*
X142704472Y-92292714D01*
X142777044Y-92583000D01*
X142777044Y-92945857D01*
X142704472Y-93236143D01*
X142631901Y-93381286D01*
X142559330Y-93453857D01*
X142414187Y-93526429D01*
X142269044Y-93526429D01*
X142123901Y-93453857D01*
X142051330Y-93381286D01*
X141978758Y-93236143D01*
X141906187Y-92945857D01*
X141906187Y-92583000D01*
X141978758Y-92292714D01*
X142051330Y-92147571D01*
X142123901Y-92075000D01*
X142269044Y-92002429D01*
X143430187Y-92945857D02*
X144591330Y-92945857D01*
X146187901Y-93381286D02*
X146115330Y-93453857D01*
X145897616Y-93526429D01*
X145752473Y-93526429D01*
X145534758Y-93453857D01*
X145389616Y-93308714D01*
X145317044Y-93163571D01*
X145244473Y-92873286D01*
X145244473Y-92655571D01*
X145317044Y-92365286D01*
X145389616Y-92220143D01*
X145534758Y-92075000D01*
X145752473Y-92002429D01*
X145897616Y-92002429D01*
X146115330Y-92075000D01*
X146187901Y-92147571D01*
X146768473Y-93091000D02*
X147494187Y-93091000D01*
X146623330Y-93526429D02*
X147131330Y-92002429D01*
X147639330Y-93526429D01*
X148655330Y-92728143D02*
X148873044Y-92800714D01*
X148945616Y-92873286D01*
X149018187Y-93018429D01*
X149018187Y-93236143D01*
X148945616Y-93381286D01*
X148873044Y-93453857D01*
X148727902Y-93526429D01*
X148147330Y-93526429D01*
X148147330Y-92002429D01*
X148655330Y-92002429D01*
X148800473Y-92075000D01*
X148873044Y-92147571D01*
X148945616Y-92292714D01*
X148945616Y-92437857D01*
X148873044Y-92583000D01*
X148800473Y-92655571D01*
X148655330Y-92728143D01*
X148147330Y-92728143D01*
X150397044Y-93526429D02*
X149671330Y-93526429D01*
X149671330Y-92002429D01*
X150905044Y-92728143D02*
X151413044Y-92728143D01*
X151630758Y-93526429D02*
X150905044Y-93526429D01*
X150905044Y-92002429D01*
X151630758Y-92002429D01*
X152283901Y-92945857D02*
X153445044Y-92945857D01*
X154098187Y-93091000D02*
X154823901Y-93091000D01*
X153953044Y-93526429D02*
X154461044Y-92002429D01*
X154969044Y-93526429D01*
X155477044Y-93526429D02*
X155477044Y-92002429D01*
X155985044Y-93091000D01*
X156493044Y-92002429D01*
X156493044Y-93526429D01*
X157218758Y-93526429D02*
X157218758Y-92002429D01*
X157799330Y-92002429D01*
X157944472Y-92075000D01*
X158017044Y-92147571D01*
X158089615Y-92292714D01*
X158089615Y-92510429D01*
X158017044Y-92655571D01*
X157944472Y-92728143D01*
X157799330Y-92800714D01*
X157218758Y-92800714D01*
X158742758Y-92945857D02*
X159903901Y-92945857D01*
X160557044Y-93453857D02*
X160774758Y-93526429D01*
X161137615Y-93526429D01*
X161282758Y-93453857D01*
X161355329Y-93381286D01*
X161427901Y-93236143D01*
X161427901Y-93091000D01*
X161355329Y-92945857D01*
X161282758Y-92873286D01*
X161137615Y-92800714D01*
X160847329Y-92728143D01*
X160702187Y-92655571D01*
X160629615Y-92583000D01*
X160557044Y-92437857D01*
X160557044Y-92292714D01*
X160629615Y-92147571D01*
X160702187Y-92075000D01*
X160847329Y-92002429D01*
X161210187Y-92002429D01*
X161427901Y-92075000D01*
X162081044Y-93526429D02*
X162081044Y-92002429D01*
X162806758Y-93526429D02*
X162806758Y-92002429D01*
X163169615Y-92002429D01*
X163387330Y-92075000D01*
X163532472Y-92220143D01*
X163605044Y-92365286D01*
X163677615Y-92655571D01*
X163677615Y-92873286D01*
X163605044Y-93163571D01*
X163532472Y-93308714D01*
X163387330Y-93453857D01*
X163169615Y-93526429D01*
X162806758Y-93526429D01*
X164330758Y-92728143D02*
X164838758Y-92728143D01*
X165056472Y-93526429D02*
X164330758Y-93526429D01*
X164330758Y-92002429D01*
X165056472Y-92002429D01*
M02*
