G04 #@! TF.FileFunction,Copper,L1,Top,Signal*
%FSLAX46Y46*%
G04 Gerber Fmt 4.6, Leading zero omitted, Abs format (unit mm)*
G04 Created by KiCad (PCBNEW 4.0.2-stable) date Friday, July 22, 2016 'PMt' 02:11:42 PM*
%MOMM*%
G01*
G04 APERTURE LIST*
%ADD10C,0.100000*%
%ADD11R,0.381000X0.762000*%
%ADD12R,0.381000X1.016000*%
%ADD13C,1.524000*%
%ADD14C,0.250000*%
G04 APERTURE END LIST*
D10*
D11*
X149337500Y-106019600D03*
X148702500Y-106019600D03*
X148067500Y-106019600D03*
X147432500Y-106019600D03*
X146797500Y-106019600D03*
X146162500Y-106019600D03*
D12*
X149337500Y-107162600D03*
X148702500Y-107162600D03*
X148067500Y-107162600D03*
X147432500Y-107162600D03*
X146797500Y-107162600D03*
X146162500Y-107162600D03*
D13*
X141986000Y-108204000D03*
X153543000Y-108204000D03*
X153543000Y-110363000D03*
X153543000Y-106045000D03*
X151257000Y-110363000D03*
X153543000Y-103886000D03*
X148971000Y-110363000D03*
X141986000Y-103886000D03*
X146558000Y-110363000D03*
X141986000Y-106045000D03*
X144272000Y-110363000D03*
X141986000Y-110363000D03*
D14*
X149337500Y-106019600D02*
X150469600Y-106019600D01*
X150495000Y-107061000D02*
X152908000Y-108204000D01*
X150495000Y-106045000D02*
X150495000Y-107061000D01*
X150469600Y-106019600D02*
X150495000Y-106045000D01*
X152908000Y-108204000D02*
X153543000Y-108204000D01*
X149337500Y-106019600D02*
X149362900Y-106045000D01*
X150495000Y-105156000D02*
X151384000Y-105156000D01*
X148717000Y-106005100D02*
X148717000Y-105156000D01*
X148717000Y-105156000D02*
X150495000Y-105156000D01*
X151384000Y-105156000D02*
X153543000Y-106045000D01*
X148702500Y-106019600D02*
X148717000Y-106005100D01*
X148067500Y-106019600D02*
X148082000Y-106005100D01*
X148082000Y-106005100D02*
X148082000Y-104584500D01*
X148082000Y-104584500D02*
X153337500Y-103680500D01*
X153337500Y-103680500D02*
X153543000Y-103886000D01*
X147432500Y-106019600D02*
X147447000Y-106005100D01*
X147447000Y-106005100D02*
X147447000Y-104584500D01*
X147447000Y-104584500D02*
X142091500Y-103780500D01*
X142091500Y-103780500D02*
X141986000Y-103886000D01*
X145034000Y-105156000D02*
X144145000Y-105156000D01*
X146367500Y-105156000D02*
X145034000Y-105156000D01*
X146812000Y-105156000D02*
X146367500Y-105156000D01*
X146812000Y-105219500D02*
X146812000Y-105156000D01*
X146812000Y-106005100D02*
X146812000Y-105219500D01*
X144145000Y-105156000D02*
X141986000Y-106045000D01*
X146797500Y-106019600D02*
X146812000Y-106005100D01*
X141988000Y-106043000D02*
X141986000Y-106045000D01*
X146162500Y-106019600D02*
X146137100Y-106045000D01*
X146137100Y-106045000D02*
X145034000Y-106045000D01*
X145034000Y-106045000D02*
X145034000Y-107026000D01*
X145034000Y-107026000D02*
X141986000Y-108204000D01*
X149337500Y-107162600D02*
X149337500Y-107173500D01*
X149337500Y-107173500D02*
X150495000Y-108331000D01*
X150495000Y-108331000D02*
X151511000Y-108331000D01*
X151511000Y-108331000D02*
X153543000Y-110363000D01*
X148702500Y-107162600D02*
X148702500Y-107808500D01*
X148702500Y-107808500D02*
X151257000Y-110363000D01*
X148702500Y-107162600D02*
X148717000Y-107177100D01*
X148067500Y-107162600D02*
X148067500Y-109459500D01*
X148067500Y-109459500D02*
X148971000Y-110363000D01*
X148067500Y-107162600D02*
X148082000Y-107177100D01*
X148783000Y-110175000D02*
X148971000Y-110363000D01*
X147432500Y-107162600D02*
X147432500Y-109488500D01*
X147432500Y-109488500D02*
X146558000Y-110363000D01*
X147432500Y-107162600D02*
X147447000Y-107177100D01*
X146735000Y-110186000D02*
X146558000Y-110363000D01*
X146797500Y-107162600D02*
X146797500Y-107837500D01*
X146797500Y-107837500D02*
X144272000Y-110363000D01*
X146797500Y-107162600D02*
X146812000Y-107177100D01*
X146162500Y-107162600D02*
X146162500Y-107202500D01*
X146162500Y-107202500D02*
X145034000Y-108331000D01*
X145034000Y-108331000D02*
X144018000Y-108331000D01*
X144018000Y-108331000D02*
X141986000Y-110363000D01*
M02*
