G04 #@! TF.FileFunction,Copper,L1,Top,Signal*
%FSLAX46Y46*%
G04 Gerber Fmt 4.6, Leading zero omitted, Abs format (unit mm)*
G04 Created by KiCad (PCBNEW 4.0.2-stable) date Monday, July 11, 2016 'PMt' 05:59:01 PM*
%MOMM*%
G01*
G04 APERTURE LIST*
%ADD10C,0.100000*%
%ADD11R,0.381000X0.762000*%
%ADD12R,0.381000X1.016000*%
%ADD13C,0.127000*%
G04 APERTURE END LIST*
D10*
D11*
X90487500Y-92538400D03*
X89852500Y-92538400D03*
X89217500Y-92538400D03*
X88582500Y-92538400D03*
X87947500Y-92538400D03*
X87312500Y-92538400D03*
D12*
X90487500Y-93681400D03*
X89852500Y-93681400D03*
X89217500Y-93681400D03*
X88582500Y-93681400D03*
X87947500Y-93681400D03*
X87312500Y-93681400D03*
D11*
X87312500Y-385506400D03*
X87947500Y-385506400D03*
X88582500Y-385506400D03*
X89217500Y-385506400D03*
X89852500Y-385506400D03*
X90487500Y-385506400D03*
D12*
X87312500Y-384363400D03*
X87947500Y-384363400D03*
X88582500Y-384363400D03*
X89217500Y-384363400D03*
X89852500Y-384363400D03*
X90487500Y-384363400D03*
D13*
X90487500Y-92538400D02*
X90341600Y-92538400D01*
X90341600Y-92538400D02*
X90170000Y-92710000D01*
X90170000Y-92710000D02*
X90170000Y-94615000D01*
X90170000Y-94615000D02*
X88519000Y-96266000D01*
X88519000Y-96266000D02*
X88519000Y-97028000D01*
X88519000Y-97028000D02*
X88519000Y-98171000D01*
X88519000Y-98171000D02*
X88519000Y-382270000D01*
X88519000Y-382270000D02*
X87376000Y-383413000D01*
X87376000Y-383413000D02*
X87376000Y-384299900D01*
X87376000Y-384299900D02*
X87312500Y-384363400D01*
X89852500Y-92538400D02*
X89706600Y-92538400D01*
X89706600Y-92538400D02*
X89535000Y-92710000D01*
X89535000Y-92710000D02*
X89535000Y-94488000D01*
X89535000Y-94488000D02*
X88011000Y-96012000D01*
X88011000Y-96012000D02*
X88011000Y-97028000D01*
X88011000Y-97028000D02*
X88011000Y-98171000D01*
X88011000Y-98171000D02*
X88011000Y-380492000D01*
X88011000Y-380492000D02*
X88011000Y-382016000D01*
X88011000Y-382016000D02*
X86614000Y-383413000D01*
X86614000Y-383413000D02*
X86614000Y-385953000D01*
X86614000Y-385953000D02*
X86614000Y-386080000D01*
X86614000Y-386080000D02*
X86868000Y-386334000D01*
X86868000Y-386334000D02*
X88011000Y-386334000D01*
X88011000Y-386334000D02*
X88265000Y-386080000D01*
X88265000Y-386080000D02*
X88265000Y-384683000D01*
X88265000Y-384683000D02*
X87947500Y-384365500D01*
X87947500Y-384365500D02*
X87947500Y-384363400D01*
X89217500Y-92538400D02*
X89071600Y-92538400D01*
X89071600Y-92538400D02*
X88900000Y-92710000D01*
X88900000Y-92710000D02*
X88900000Y-94361000D01*
X88900000Y-94361000D02*
X87503000Y-95758000D01*
X87503000Y-95758000D02*
X87503000Y-97028000D01*
X87503000Y-97028000D02*
X87503000Y-98171000D01*
X87503000Y-98171000D02*
X87503000Y-381762000D01*
X87503000Y-381762000D02*
X86106000Y-383159000D01*
X86106000Y-383159000D02*
X86106000Y-386334000D01*
X86106000Y-386334000D02*
X86614000Y-386842000D01*
X86614000Y-386842000D02*
X88265000Y-386842000D01*
X88265000Y-386842000D02*
X88900000Y-386207000D01*
X88900000Y-386207000D02*
X88900000Y-384683000D01*
X88900000Y-384683000D02*
X88582500Y-384365500D01*
X88582500Y-384365500D02*
X88582500Y-384363400D01*
X89027000Y-383540000D02*
X89027000Y-382524000D01*
X89217500Y-383730500D02*
X89027000Y-383540000D01*
X89027000Y-382524000D02*
X89027000Y-380746000D01*
X89027000Y-380746000D02*
X89027000Y-98171000D01*
X89027000Y-98171000D02*
X89027000Y-97028000D01*
X89027000Y-97028000D02*
X89027000Y-96520000D01*
X89027000Y-96520000D02*
X90805000Y-94742000D01*
X90805000Y-94742000D02*
X90932000Y-94615000D01*
X90932000Y-94615000D02*
X90932000Y-92075000D01*
X90932000Y-92075000D02*
X90805000Y-91948000D01*
X90805000Y-91948000D02*
X88773000Y-91948000D01*
X88773000Y-91948000D02*
X88582500Y-92138500D01*
X88582500Y-92538400D02*
X88582500Y-92138500D01*
X89217500Y-383730500D02*
X89217500Y-384363400D01*
X89852500Y-384363400D02*
X89852500Y-383603500D01*
X88011000Y-91821000D02*
X88011000Y-92474900D01*
X88392000Y-91440000D02*
X88011000Y-91821000D01*
X91059000Y-91440000D02*
X88392000Y-91440000D01*
X91440000Y-91821000D02*
X91059000Y-91440000D01*
X91440000Y-94869000D02*
X91440000Y-91821000D01*
X89535000Y-96774000D02*
X91440000Y-94869000D01*
X89535000Y-381000000D02*
X89535000Y-96774000D01*
X89535000Y-383286000D02*
X89535000Y-381000000D01*
X89852500Y-383603500D02*
X89535000Y-383286000D01*
X88011000Y-92474900D02*
X87947500Y-92538400D01*
X90487500Y-384363400D02*
X90487500Y-383476500D01*
X87376000Y-91694000D02*
X87376000Y-92474900D01*
X88138000Y-90932000D02*
X87376000Y-91694000D01*
X91313000Y-90932000D02*
X88138000Y-90932000D01*
X91948000Y-91567000D02*
X91313000Y-90932000D01*
X91948000Y-95123000D02*
X91948000Y-91567000D01*
X90043000Y-97028000D02*
X91948000Y-95123000D01*
X90043000Y-381000000D02*
X90043000Y-97028000D01*
X90043000Y-383032000D02*
X90043000Y-381000000D01*
X90487500Y-383476500D02*
X90043000Y-383032000D01*
X87376000Y-92474900D02*
X87312500Y-92538400D01*
X90487500Y-93681400D02*
X90473293Y-94742660D01*
X87630000Y-385191000D02*
X87314600Y-385506400D01*
X87630000Y-383540000D02*
X87630000Y-385191000D01*
X88773000Y-382397000D02*
X87630000Y-383540000D01*
X88773000Y-98171000D02*
X88773000Y-382397000D01*
X88773000Y-97028000D02*
X88773000Y-98171000D01*
X88773000Y-96393000D02*
X88773000Y-97028000D01*
X90473293Y-94742660D02*
X88773000Y-96393000D01*
X87314600Y-385506400D02*
X87312500Y-385506400D01*
X89852500Y-93681400D02*
X89853376Y-94540990D01*
X87630000Y-386080000D02*
X87947500Y-385762500D01*
X86995000Y-386080000D02*
X87630000Y-386080000D01*
X86868000Y-385953000D02*
X86995000Y-386080000D01*
X86868000Y-383540000D02*
X86868000Y-385953000D01*
X86995000Y-383413000D02*
X86868000Y-383540000D01*
X88265000Y-382143000D02*
X86995000Y-383413000D01*
X88265000Y-380492000D02*
X88265000Y-382143000D01*
X88265000Y-98171000D02*
X88265000Y-380492000D01*
X88265000Y-97028000D02*
X88265000Y-98171000D01*
X88265000Y-96139000D02*
X88265000Y-97028000D01*
X89853376Y-94540990D02*
X88265000Y-96139000D01*
X87947500Y-385762500D02*
X87947500Y-385506400D01*
X89217500Y-93681400D02*
X89217500Y-94424500D01*
X88519000Y-386207000D02*
X88519000Y-385569900D01*
X88138000Y-386588000D02*
X88519000Y-386207000D01*
X86741000Y-386588000D02*
X88138000Y-386588000D01*
X86360000Y-386207000D02*
X86741000Y-386588000D01*
X86360000Y-383286000D02*
X86360000Y-386207000D01*
X87757000Y-381889000D02*
X86360000Y-383286000D01*
X87757000Y-97028000D02*
X87757000Y-381889000D01*
X87757000Y-95885000D02*
X87757000Y-97028000D01*
X89217500Y-94424500D02*
X87757000Y-95885000D01*
X88519000Y-385569900D02*
X88582500Y-385506400D01*
X89535000Y-383667000D02*
X89281000Y-383413000D01*
X88474400Y-93681400D02*
X88265000Y-93472000D01*
X88265000Y-91948000D02*
X88265000Y-93472000D01*
X88519000Y-91694000D02*
X88265000Y-91948000D01*
X90932000Y-91694000D02*
X88519000Y-91694000D01*
X91186000Y-91948000D02*
X90932000Y-91694000D01*
X91186000Y-94742000D02*
X91186000Y-91948000D01*
X89281000Y-96647000D02*
X91186000Y-94742000D01*
X89281000Y-97028000D02*
X89281000Y-96647000D01*
X89281000Y-98171000D02*
X89281000Y-97028000D01*
X89281000Y-381000000D02*
X89281000Y-98171000D01*
X89281000Y-382651000D02*
X89281000Y-381000000D01*
X89535000Y-385318000D02*
X89535000Y-383667000D01*
X89535000Y-385318000D02*
X89346600Y-385506400D01*
X89281000Y-383413000D02*
X89281000Y-382651000D01*
X89217500Y-385506400D02*
X89346600Y-385506400D01*
X88474400Y-93681400D02*
X88582500Y-93681400D01*
X89852500Y-385506400D02*
X89981600Y-385506400D01*
X89981600Y-385506400D02*
X90170000Y-385318000D01*
X90170000Y-385318000D02*
X90170000Y-383540000D01*
X90170000Y-383540000D02*
X89789000Y-383159000D01*
X89789000Y-383159000D02*
X89789000Y-381000000D01*
X89789000Y-381000000D02*
X89789000Y-98171000D01*
X89789000Y-98171000D02*
X89789000Y-96901000D01*
X89789000Y-96901000D02*
X91694000Y-94996000D01*
X91694000Y-94996000D02*
X91694000Y-91694000D01*
X91694000Y-91694000D02*
X91186000Y-91186000D01*
X91186000Y-91186000D02*
X88265000Y-91186000D01*
X88265000Y-91186000D02*
X87630000Y-91821000D01*
X87630000Y-91821000D02*
X87630000Y-93472000D01*
X87630000Y-93472000D02*
X87839400Y-93681400D01*
X87839400Y-93681400D02*
X87947500Y-93681400D01*
X90487500Y-385506400D02*
X90616600Y-385506400D01*
X90616600Y-385506400D02*
X90805000Y-385318000D01*
X90805000Y-385318000D02*
X90805000Y-383413000D01*
X90805000Y-383413000D02*
X90297000Y-382905000D01*
X90297000Y-382905000D02*
X90297000Y-380619000D01*
X90297000Y-380619000D02*
X90297000Y-97155000D01*
X90297000Y-97155000D02*
X92202000Y-95250000D01*
X92202000Y-95250000D02*
X92202000Y-91440000D01*
X92202000Y-91440000D02*
X91440000Y-90678000D01*
X91440000Y-90678000D02*
X88011000Y-90678000D01*
X88011000Y-90678000D02*
X86995000Y-91694000D01*
X86995000Y-91694000D02*
X86868000Y-91821000D01*
X86868000Y-91821000D02*
X86868000Y-93472000D01*
X86868000Y-93472000D02*
X87077400Y-93681400D01*
X87077400Y-93681400D02*
X87312500Y-93681400D01*
M02*
