G04 #@! TF.FileFunction,Copper,L1,Top,Signal*
%FSLAX46Y46*%
G04 Gerber Fmt 4.6, Leading zero omitted, Abs format (unit mm)*
G04 Created by KiCad (PCBNEW 4.0.2-stable) date Monday, May 22, 2017 'PMt' 12:42:44 PM*
%MOMM*%
G01*
G04 APERTURE LIST*
%ADD10C,0.100000*%
%ADD11C,2.500000*%
%ADD12R,0.500000X1.500000*%
%ADD13C,0.250000*%
G04 APERTURE END LIST*
D10*
D11*
X141860000Y-104775000D03*
X146558000Y-99780000D03*
X153162000Y-99780000D03*
X157860000Y-104775000D03*
X157099000Y-112522000D03*
X149860000Y-113580000D03*
X142621000Y-112649000D03*
D12*
X152860000Y-108580000D03*
X151860000Y-108580000D03*
X150860000Y-108580000D03*
X149860000Y-108580000D03*
X148860000Y-108580000D03*
X147860000Y-108580000D03*
X146860000Y-108580000D03*
X152860000Y-104780000D03*
X151860000Y-104780000D03*
X150860000Y-104780000D03*
X149860000Y-104780000D03*
X148860000Y-104780000D03*
X147860000Y-104780000D03*
X146860000Y-104780000D03*
D11*
X142621000Y-100711000D03*
X149860000Y-99780000D03*
X157099000Y-100711000D03*
X157860000Y-108585000D03*
X153162000Y-113580000D03*
X146558000Y-113580000D03*
X141860000Y-108585000D03*
D13*
X146860000Y-104780000D02*
X141865000Y-104780000D01*
X141865000Y-104780000D02*
X141860000Y-104775000D01*
X148860000Y-104780000D02*
X148860000Y-102082000D01*
X148860000Y-102082000D02*
X146558000Y-99780000D01*
X150860000Y-104780000D02*
X150860000Y-102082000D01*
X150860000Y-102082000D02*
X153162000Y-99780000D01*
X152860000Y-104780000D02*
X157855000Y-104780000D01*
X157855000Y-104780000D02*
X157860000Y-104775000D01*
X151860000Y-108580000D02*
X151860000Y-110204000D01*
X154813000Y-110236000D02*
X157099000Y-112522000D01*
X151892000Y-110236000D02*
X154813000Y-110236000D01*
X151860000Y-110204000D02*
X151892000Y-110236000D01*
X149860000Y-108580000D02*
X149860000Y-113580000D01*
X147860000Y-108580000D02*
X147860000Y-110268000D01*
X145034000Y-110236000D02*
X142621000Y-112649000D01*
X147828000Y-110236000D02*
X145034000Y-110236000D01*
X147860000Y-110268000D02*
X147828000Y-110236000D01*
X152860000Y-108580000D02*
X157855000Y-108580000D01*
X157855000Y-108580000D02*
X157860000Y-108585000D01*
X150860000Y-108580000D02*
X150860000Y-111278000D01*
X150860000Y-111278000D02*
X153162000Y-113580000D01*
X148860000Y-108580000D02*
X148860000Y-111278000D01*
X148860000Y-111278000D02*
X146558000Y-113580000D01*
X146860000Y-108580000D02*
X141865000Y-108580000D01*
X141865000Y-108580000D02*
X141860000Y-108585000D01*
X151860000Y-104780000D02*
X151860000Y-102902000D01*
X154940000Y-102870000D02*
X157099000Y-100711000D01*
X151892000Y-102870000D02*
X154940000Y-102870000D01*
X151860000Y-102902000D02*
X151892000Y-102870000D01*
X149860000Y-104780000D02*
X149860000Y-99780000D01*
X147860000Y-104780000D02*
X147860000Y-102902000D01*
X144780000Y-102870000D02*
X142621000Y-100711000D01*
X147828000Y-102870000D02*
X144780000Y-102870000D01*
X147860000Y-102902000D02*
X147828000Y-102870000D01*
M02*
