M48
INCH,TZ
T1C0.015
T2C0.020
T3C0.040
%
G90
G05
T1
X92100Y-43100
T2
X88583Y-35220
X88583Y-36402
X88583Y-37583
X88583Y-38764
X88583Y-39945
X88583Y-41126
X88583Y-42307
X88583Y-43488
X92400Y-35800
X93100Y-44400
X93900Y-44400
X94700Y-44400
X95300Y-35800
X95500Y-44400
X99600Y-42200
X99606Y-35220
X99606Y-36402
X99606Y-37583
X99606Y-38764
X99606Y-39945
X99606Y-41126
X99606Y-43488
X99606Y-44669
T3
X91700Y-46900
X92700Y-46900
X93300Y-33700
X93700Y-46900
X94300Y-33700
X94700Y-46900
X95700Y-46900
X96700Y-46900
T0
M30
