%FSLAX45Y45*%
G04 Gerber Fmt 4.5, Leading zero omitted, Abs format (unit mm)*
G04 Created by KiCad (PCBNEW 4.0.2-stable) date Monday, July 11, 2016 'PMt' 12:19:43 PM*
%MOMM*%
G01*
G04 APERTURE LIST*
%ADD10C,0.127000*%
%ADD11C,0.150000*%
%ADD12C,0.200000*%
%ADD13C,0.300000*%
G04 APERTURE END LIST*
D10*
D11*
X25958800Y-12395200D02*
X25958800Y-8026400D01*
X21844000Y-8026400D02*
X21844000Y-12395200D01*
X21844000Y-12395200D02*
X25958800Y-12395200D01*
X21844000Y-8026400D02*
X25958800Y-8026400D01*
D12*
X23373400Y-10927400D02*
X23413400Y-10967400D01*
X23413400Y-10927400D02*
X23373400Y-10967400D01*
X22525000Y-8946000D02*
G75*
G03X22525000Y-8946000I-25000J0D01*
G01*
X22525000Y-9246000D02*
G75*
G03X22525000Y-9246000I-25000J0D01*
G01*
X22525000Y-9546000D02*
G75*
G03X22525000Y-9546000I-25000J0D01*
G01*
X22525000Y-9846000D02*
G75*
G03X22525000Y-9846000I-25000J0D01*
G01*
X22525000Y-10146000D02*
G75*
G03X22525000Y-10146000I-25000J0D01*
G01*
X22525000Y-10446000D02*
G75*
G03X22525000Y-10446000I-25000J0D01*
G01*
X22525000Y-10746000D02*
G75*
G03X22525000Y-10746000I-25000J0D01*
G01*
X22525000Y-11046000D02*
G75*
G03X22525000Y-11046000I-25000J0D01*
G01*
X23494600Y-9093200D02*
G75*
G03X23494600Y-9093200I-25000J0D01*
G01*
X23672400Y-11277600D02*
G75*
G03X23672400Y-11277600I-25000J0D01*
G01*
X23875600Y-11277600D02*
G75*
G03X23875600Y-11277600I-25000J0D01*
G01*
X24078800Y-11277600D02*
G75*
G03X24078800Y-11277600I-25000J0D01*
G01*
X24231200Y-9093200D02*
G75*
G03X24231200Y-9093200I-25000J0D01*
G01*
X24282000Y-11277600D02*
G75*
G03X24282000Y-11277600I-25000J0D01*
G01*
X25323400Y-10718800D02*
G75*
G03X25323400Y-10718800I-25000J0D01*
G01*
X25325000Y-8946000D02*
G75*
G03X25325000Y-8946000I-25000J0D01*
G01*
X25325000Y-9246000D02*
G75*
G03X25325000Y-9246000I-25000J0D01*
G01*
X25325000Y-9546000D02*
G75*
G03X25325000Y-9546000I-25000J0D01*
G01*
X25325000Y-9846000D02*
G75*
G03X25325000Y-9846000I-25000J0D01*
G01*
X25325000Y-10146000D02*
G75*
G03X25325000Y-10146000I-25000J0D01*
G01*
X25325000Y-10446000D02*
G75*
G03X25325000Y-10446000I-25000J0D01*
G01*
X25325000Y-11046000D02*
G75*
G03X25325000Y-11046000I-25000J0D01*
G01*
X25325000Y-11346000D02*
G75*
G03X25325000Y-11346000I-25000J0D01*
G01*
X23291800Y-11861800D02*
X23291800Y-11963400D01*
X23241000Y-11912600D02*
X23342600Y-11912600D01*
X23545800Y-11861800D02*
X23545800Y-11963400D01*
X23495000Y-11912600D02*
X23596600Y-11912600D01*
X23698200Y-8509000D02*
X23698200Y-8610600D01*
X23647400Y-8559800D02*
X23749000Y-8559800D01*
X23799800Y-11861800D02*
X23799800Y-11963400D01*
X23749000Y-11912600D02*
X23850600Y-11912600D01*
X23952200Y-8509000D02*
X23952200Y-8610600D01*
X23901400Y-8559800D02*
X24003000Y-8559800D01*
X24053800Y-11861800D02*
X24053800Y-11963400D01*
X24003000Y-11912600D02*
X24104600Y-11912600D01*
X24307800Y-11861800D02*
X24307800Y-11963400D01*
X24257000Y-11912600D02*
X24358600Y-11912600D01*
X24561800Y-11861800D02*
X24561800Y-11963400D01*
X24511000Y-11912600D02*
X24612600Y-11912600D01*
D13*
X22107929Y-12868414D02*
X22107929Y-12568414D01*
X22179357Y-12568414D01*
X22222214Y-12582700D01*
X22250786Y-12611271D01*
X22265071Y-12639843D01*
X22279357Y-12696986D01*
X22279357Y-12739843D01*
X22265071Y-12796986D01*
X22250786Y-12825557D01*
X22222214Y-12854129D01*
X22179357Y-12868414D01*
X22107929Y-12868414D01*
X22407928Y-12868414D02*
X22407928Y-12668414D01*
X22407928Y-12725557D02*
X22422214Y-12696986D01*
X22436500Y-12682700D01*
X22465071Y-12668414D01*
X22493643Y-12668414D01*
X22593643Y-12868414D02*
X22593643Y-12668414D01*
X22593643Y-12568414D02*
X22579357Y-12582700D01*
X22593643Y-12596986D01*
X22607928Y-12582700D01*
X22593643Y-12568414D01*
X22593643Y-12596986D01*
X22779357Y-12868414D02*
X22750786Y-12854129D01*
X22736500Y-12825557D01*
X22736500Y-12568414D01*
X22936500Y-12868414D02*
X22907928Y-12854129D01*
X22893643Y-12825557D01*
X22893643Y-12568414D01*
X23279357Y-12868414D02*
X23279357Y-12568414D01*
X23379357Y-12782700D01*
X23479357Y-12568414D01*
X23479357Y-12868414D01*
X23750786Y-12868414D02*
X23750786Y-12711271D01*
X23736500Y-12682700D01*
X23707928Y-12668414D01*
X23650786Y-12668414D01*
X23622214Y-12682700D01*
X23750786Y-12854129D02*
X23722214Y-12868414D01*
X23650786Y-12868414D01*
X23622214Y-12854129D01*
X23607928Y-12825557D01*
X23607928Y-12796986D01*
X23622214Y-12768414D01*
X23650786Y-12754129D01*
X23722214Y-12754129D01*
X23750786Y-12739843D01*
X23893643Y-12668414D02*
X23893643Y-12968414D01*
X23893643Y-12682700D02*
X23922214Y-12668414D01*
X23979357Y-12668414D01*
X24007928Y-12682700D01*
X24022214Y-12696986D01*
X24036500Y-12725557D01*
X24036500Y-12811271D01*
X24022214Y-12839843D01*
X24007928Y-12854129D01*
X23979357Y-12868414D01*
X23922214Y-12868414D01*
X23893643Y-12854129D01*
X24165071Y-12839843D02*
X24179357Y-12854129D01*
X24165071Y-12868414D01*
X24150786Y-12854129D01*
X24165071Y-12839843D01*
X24165071Y-12868414D01*
X24165071Y-12682700D02*
X24179357Y-12696986D01*
X24165071Y-12711271D01*
X24150786Y-12696986D01*
X24165071Y-12682700D01*
X24165071Y-12711271D01*
X21796500Y-13342700D02*
X21836500Y-13382700D01*
X21836500Y-13342700D02*
X21796500Y-13382700D01*
X22165071Y-13198414D02*
X22193643Y-13198414D01*
X22222214Y-13212700D01*
X22236500Y-13226986D01*
X22250786Y-13255557D01*
X22265071Y-13312700D01*
X22265071Y-13384129D01*
X22250786Y-13441271D01*
X22236500Y-13469843D01*
X22222214Y-13484129D01*
X22193643Y-13498414D01*
X22165071Y-13498414D01*
X22136500Y-13484129D01*
X22122214Y-13469843D01*
X22107929Y-13441271D01*
X22093643Y-13384129D01*
X22093643Y-13312700D01*
X22107929Y-13255557D01*
X22122214Y-13226986D01*
X22136500Y-13212700D01*
X22165071Y-13198414D01*
X22393643Y-13469843D02*
X22407928Y-13484129D01*
X22393643Y-13498414D01*
X22379357Y-13484129D01*
X22393643Y-13469843D01*
X22393643Y-13498414D01*
X22665071Y-13298414D02*
X22665071Y-13498414D01*
X22593643Y-13184129D02*
X22522214Y-13398414D01*
X22707928Y-13398414D01*
X22879357Y-13198414D02*
X22907928Y-13198414D01*
X22936500Y-13212700D01*
X22950786Y-13226986D01*
X22965071Y-13255557D01*
X22979357Y-13312700D01*
X22979357Y-13384129D01*
X22965071Y-13441271D01*
X22950786Y-13469843D01*
X22936500Y-13484129D01*
X22907928Y-13498414D01*
X22879357Y-13498414D01*
X22850786Y-13484129D01*
X22836500Y-13469843D01*
X22822214Y-13441271D01*
X22807928Y-13384129D01*
X22807928Y-13312700D01*
X22822214Y-13255557D01*
X22836500Y-13226986D01*
X22850786Y-13212700D01*
X22879357Y-13198414D01*
X23107928Y-13498414D02*
X23107928Y-13298414D01*
X23107928Y-13326986D02*
X23122214Y-13312700D01*
X23150786Y-13298414D01*
X23193643Y-13298414D01*
X23222214Y-13312700D01*
X23236500Y-13341271D01*
X23236500Y-13498414D01*
X23236500Y-13341271D02*
X23250786Y-13312700D01*
X23279357Y-13298414D01*
X23322214Y-13298414D01*
X23350786Y-13312700D01*
X23365071Y-13341271D01*
X23365071Y-13498414D01*
X23507928Y-13498414D02*
X23507928Y-13298414D01*
X23507928Y-13326986D02*
X23522214Y-13312700D01*
X23550786Y-13298414D01*
X23593643Y-13298414D01*
X23622214Y-13312700D01*
X23636500Y-13341271D01*
X23636500Y-13498414D01*
X23636500Y-13341271D02*
X23650786Y-13312700D01*
X23679357Y-13298414D01*
X23722214Y-13298414D01*
X23750786Y-13312700D01*
X23765071Y-13341271D01*
X23765071Y-13498414D01*
X24350786Y-13184129D02*
X24093643Y-13569843D01*
X24736500Y-13198414D02*
X24765071Y-13198414D01*
X24793643Y-13212700D01*
X24807928Y-13226986D01*
X24822214Y-13255557D01*
X24836500Y-13312700D01*
X24836500Y-13384129D01*
X24822214Y-13441271D01*
X24807928Y-13469843D01*
X24793643Y-13484129D01*
X24765071Y-13498414D01*
X24736500Y-13498414D01*
X24707928Y-13484129D01*
X24693643Y-13469843D01*
X24679357Y-13441271D01*
X24665071Y-13384129D01*
X24665071Y-13312700D01*
X24679357Y-13255557D01*
X24693643Y-13226986D01*
X24707928Y-13212700D01*
X24736500Y-13198414D01*
X24965071Y-13469843D02*
X24979357Y-13484129D01*
X24965071Y-13498414D01*
X24950786Y-13484129D01*
X24965071Y-13469843D01*
X24965071Y-13498414D01*
X25165071Y-13198414D02*
X25193643Y-13198414D01*
X25222214Y-13212700D01*
X25236500Y-13226986D01*
X25250785Y-13255557D01*
X25265071Y-13312700D01*
X25265071Y-13384129D01*
X25250785Y-13441271D01*
X25236500Y-13469843D01*
X25222214Y-13484129D01*
X25193643Y-13498414D01*
X25165071Y-13498414D01*
X25136500Y-13484129D01*
X25122214Y-13469843D01*
X25107928Y-13441271D01*
X25093643Y-13384129D01*
X25093643Y-13312700D01*
X25107928Y-13255557D01*
X25122214Y-13226986D01*
X25136500Y-13212700D01*
X25165071Y-13198414D01*
X25550785Y-13498414D02*
X25379357Y-13498414D01*
X25465071Y-13498414D02*
X25465071Y-13198414D01*
X25436500Y-13241271D01*
X25407928Y-13269843D01*
X25379357Y-13284129D01*
X25807928Y-13198414D02*
X25750785Y-13198414D01*
X25722214Y-13212700D01*
X25707928Y-13226986D01*
X25679357Y-13269843D01*
X25665071Y-13326986D01*
X25665071Y-13441271D01*
X25679357Y-13469843D01*
X25693643Y-13484129D01*
X25722214Y-13498414D01*
X25779357Y-13498414D01*
X25807928Y-13484129D01*
X25822214Y-13469843D01*
X25836500Y-13441271D01*
X25836500Y-13369843D01*
X25822214Y-13341271D01*
X25807928Y-13326986D01*
X25779357Y-13312700D01*
X25722214Y-13312700D01*
X25693643Y-13326986D01*
X25679357Y-13341271D01*
X25665071Y-13369843D01*
X25950786Y-13198414D02*
X25950786Y-13255557D01*
X26065071Y-13198414D02*
X26065071Y-13255557D01*
X26507928Y-13612700D02*
X26493643Y-13598414D01*
X26465071Y-13555557D01*
X26450785Y-13526986D01*
X26436500Y-13484129D01*
X26422214Y-13412700D01*
X26422214Y-13355557D01*
X26436500Y-13284129D01*
X26450785Y-13241271D01*
X26465071Y-13212700D01*
X26493643Y-13169843D01*
X26507928Y-13155557D01*
X26779357Y-13498414D02*
X26607928Y-13498414D01*
X26693643Y-13498414D02*
X26693643Y-13198414D01*
X26665071Y-13241271D01*
X26636500Y-13269843D01*
X26607928Y-13284129D01*
X27136500Y-13498414D02*
X27136500Y-13198414D01*
X27265071Y-13498414D02*
X27265071Y-13341271D01*
X27250785Y-13312700D01*
X27222214Y-13298414D01*
X27179357Y-13298414D01*
X27150785Y-13312700D01*
X27136500Y-13326986D01*
X27450785Y-13498414D02*
X27422214Y-13484129D01*
X27407928Y-13469843D01*
X27393643Y-13441271D01*
X27393643Y-13355557D01*
X27407928Y-13326986D01*
X27422214Y-13312700D01*
X27450785Y-13298414D01*
X27493643Y-13298414D01*
X27522214Y-13312700D01*
X27536500Y-13326986D01*
X27550785Y-13355557D01*
X27550785Y-13441271D01*
X27536500Y-13469843D01*
X27522214Y-13484129D01*
X27493643Y-13498414D01*
X27450785Y-13498414D01*
X27722214Y-13498414D02*
X27693643Y-13484129D01*
X27679357Y-13455557D01*
X27679357Y-13198414D01*
X27950786Y-13484129D02*
X27922214Y-13498414D01*
X27865071Y-13498414D01*
X27836500Y-13484129D01*
X27822214Y-13455557D01*
X27822214Y-13341271D01*
X27836500Y-13312700D01*
X27865071Y-13298414D01*
X27922214Y-13298414D01*
X27950786Y-13312700D01*
X27965071Y-13341271D01*
X27965071Y-13369843D01*
X27822214Y-13398414D01*
X28065071Y-13612700D02*
X28079357Y-13598414D01*
X28107928Y-13555557D01*
X28122214Y-13526986D01*
X28136500Y-13484129D01*
X28150786Y-13412700D01*
X28150786Y-13355557D01*
X28136500Y-13284129D01*
X28122214Y-13241271D01*
X28107928Y-13212700D01*
X28079357Y-13169843D01*
X28065071Y-13155557D01*
X21836500Y-13758700D02*
G75*
G03X21836500Y-13758700I-25000J0D01*
G01*
X22165071Y-13594414D02*
X22193643Y-13594414D01*
X22222214Y-13608700D01*
X22236500Y-13622986D01*
X22250786Y-13651557D01*
X22265071Y-13708700D01*
X22265071Y-13780129D01*
X22250786Y-13837271D01*
X22236500Y-13865843D01*
X22222214Y-13880129D01*
X22193643Y-13894414D01*
X22165071Y-13894414D01*
X22136500Y-13880129D01*
X22122214Y-13865843D01*
X22107929Y-13837271D01*
X22093643Y-13780129D01*
X22093643Y-13708700D01*
X22107929Y-13651557D01*
X22122214Y-13622986D01*
X22136500Y-13608700D01*
X22165071Y-13594414D01*
X22393643Y-13865843D02*
X22407928Y-13880129D01*
X22393643Y-13894414D01*
X22379357Y-13880129D01*
X22393643Y-13865843D01*
X22393643Y-13894414D01*
X22679357Y-13594414D02*
X22536500Y-13594414D01*
X22522214Y-13737271D01*
X22536500Y-13722986D01*
X22565071Y-13708700D01*
X22636500Y-13708700D01*
X22665071Y-13722986D01*
X22679357Y-13737271D01*
X22693643Y-13765843D01*
X22693643Y-13837271D01*
X22679357Y-13865843D01*
X22665071Y-13880129D01*
X22636500Y-13894414D01*
X22565071Y-13894414D01*
X22536500Y-13880129D01*
X22522214Y-13865843D01*
X22879357Y-13594414D02*
X22907928Y-13594414D01*
X22936500Y-13608700D01*
X22950786Y-13622986D01*
X22965071Y-13651557D01*
X22979357Y-13708700D01*
X22979357Y-13780129D01*
X22965071Y-13837271D01*
X22950786Y-13865843D01*
X22936500Y-13880129D01*
X22907928Y-13894414D01*
X22879357Y-13894414D01*
X22850786Y-13880129D01*
X22836500Y-13865843D01*
X22822214Y-13837271D01*
X22807928Y-13780129D01*
X22807928Y-13708700D01*
X22822214Y-13651557D01*
X22836500Y-13622986D01*
X22850786Y-13608700D01*
X22879357Y-13594414D01*
X23107928Y-13894414D02*
X23107928Y-13694414D01*
X23107928Y-13722986D02*
X23122214Y-13708700D01*
X23150786Y-13694414D01*
X23193643Y-13694414D01*
X23222214Y-13708700D01*
X23236500Y-13737271D01*
X23236500Y-13894414D01*
X23236500Y-13737271D02*
X23250786Y-13708700D01*
X23279357Y-13694414D01*
X23322214Y-13694414D01*
X23350786Y-13708700D01*
X23365071Y-13737271D01*
X23365071Y-13894414D01*
X23507928Y-13894414D02*
X23507928Y-13694414D01*
X23507928Y-13722986D02*
X23522214Y-13708700D01*
X23550786Y-13694414D01*
X23593643Y-13694414D01*
X23622214Y-13708700D01*
X23636500Y-13737271D01*
X23636500Y-13894414D01*
X23636500Y-13737271D02*
X23650786Y-13708700D01*
X23679357Y-13694414D01*
X23722214Y-13694414D01*
X23750786Y-13708700D01*
X23765071Y-13737271D01*
X23765071Y-13894414D01*
X24350786Y-13580129D02*
X24093643Y-13965843D01*
X24736500Y-13594414D02*
X24765071Y-13594414D01*
X24793643Y-13608700D01*
X24807928Y-13622986D01*
X24822214Y-13651557D01*
X24836500Y-13708700D01*
X24836500Y-13780129D01*
X24822214Y-13837271D01*
X24807928Y-13865843D01*
X24793643Y-13880129D01*
X24765071Y-13894414D01*
X24736500Y-13894414D01*
X24707928Y-13880129D01*
X24693643Y-13865843D01*
X24679357Y-13837271D01*
X24665071Y-13780129D01*
X24665071Y-13708700D01*
X24679357Y-13651557D01*
X24693643Y-13622986D01*
X24707928Y-13608700D01*
X24736500Y-13594414D01*
X24965071Y-13865843D02*
X24979357Y-13880129D01*
X24965071Y-13894414D01*
X24950786Y-13880129D01*
X24965071Y-13865843D01*
X24965071Y-13894414D01*
X25165071Y-13594414D02*
X25193643Y-13594414D01*
X25222214Y-13608700D01*
X25236500Y-13622986D01*
X25250785Y-13651557D01*
X25265071Y-13708700D01*
X25265071Y-13780129D01*
X25250785Y-13837271D01*
X25236500Y-13865843D01*
X25222214Y-13880129D01*
X25193643Y-13894414D01*
X25165071Y-13894414D01*
X25136500Y-13880129D01*
X25122214Y-13865843D01*
X25107928Y-13837271D01*
X25093643Y-13780129D01*
X25093643Y-13708700D01*
X25107928Y-13651557D01*
X25122214Y-13622986D01*
X25136500Y-13608700D01*
X25165071Y-13594414D01*
X25379357Y-13622986D02*
X25393643Y-13608700D01*
X25422214Y-13594414D01*
X25493643Y-13594414D01*
X25522214Y-13608700D01*
X25536500Y-13622986D01*
X25550785Y-13651557D01*
X25550785Y-13680129D01*
X25536500Y-13722986D01*
X25365071Y-13894414D01*
X25550785Y-13894414D01*
X25736500Y-13594414D02*
X25765071Y-13594414D01*
X25793643Y-13608700D01*
X25807928Y-13622986D01*
X25822214Y-13651557D01*
X25836500Y-13708700D01*
X25836500Y-13780129D01*
X25822214Y-13837271D01*
X25807928Y-13865843D01*
X25793643Y-13880129D01*
X25765071Y-13894414D01*
X25736500Y-13894414D01*
X25707928Y-13880129D01*
X25693643Y-13865843D01*
X25679357Y-13837271D01*
X25665071Y-13780129D01*
X25665071Y-13708700D01*
X25679357Y-13651557D01*
X25693643Y-13622986D01*
X25707928Y-13608700D01*
X25736500Y-13594414D01*
X25950786Y-13594414D02*
X25950786Y-13651557D01*
X26065071Y-13594414D02*
X26065071Y-13651557D01*
X26507928Y-14008700D02*
X26493643Y-13994414D01*
X26465071Y-13951557D01*
X26450785Y-13922986D01*
X26436500Y-13880129D01*
X26422214Y-13808700D01*
X26422214Y-13751557D01*
X26436500Y-13680129D01*
X26450785Y-13637271D01*
X26465071Y-13608700D01*
X26493643Y-13565843D01*
X26507928Y-13551557D01*
X26607928Y-13622986D02*
X26622214Y-13608700D01*
X26650785Y-13594414D01*
X26722214Y-13594414D01*
X26750785Y-13608700D01*
X26765071Y-13622986D01*
X26779357Y-13651557D01*
X26779357Y-13680129D01*
X26765071Y-13722986D01*
X26593643Y-13894414D01*
X26779357Y-13894414D01*
X26879357Y-13594414D02*
X27065071Y-13594414D01*
X26965071Y-13708700D01*
X27007928Y-13708700D01*
X27036500Y-13722986D01*
X27050785Y-13737271D01*
X27065071Y-13765843D01*
X27065071Y-13837271D01*
X27050785Y-13865843D01*
X27036500Y-13880129D01*
X27007928Y-13894414D01*
X26922214Y-13894414D01*
X26893643Y-13880129D01*
X26879357Y-13865843D01*
X27422214Y-13894414D02*
X27422214Y-13594414D01*
X27550785Y-13894414D02*
X27550785Y-13737271D01*
X27536500Y-13708700D01*
X27507928Y-13694414D01*
X27465071Y-13694414D01*
X27436500Y-13708700D01*
X27422214Y-13722986D01*
X27736500Y-13894414D02*
X27707928Y-13880129D01*
X27693643Y-13865843D01*
X27679357Y-13837271D01*
X27679357Y-13751557D01*
X27693643Y-13722986D01*
X27707928Y-13708700D01*
X27736500Y-13694414D01*
X27779357Y-13694414D01*
X27807928Y-13708700D01*
X27822214Y-13722986D01*
X27836500Y-13751557D01*
X27836500Y-13837271D01*
X27822214Y-13865843D01*
X27807928Y-13880129D01*
X27779357Y-13894414D01*
X27736500Y-13894414D01*
X28007928Y-13894414D02*
X27979357Y-13880129D01*
X27965071Y-13851557D01*
X27965071Y-13594414D01*
X28236500Y-13880129D02*
X28207928Y-13894414D01*
X28150786Y-13894414D01*
X28122214Y-13880129D01*
X28107928Y-13851557D01*
X28107928Y-13737271D01*
X28122214Y-13708700D01*
X28150786Y-13694414D01*
X28207928Y-13694414D01*
X28236500Y-13708700D01*
X28250786Y-13737271D01*
X28250786Y-13765843D01*
X28107928Y-13794414D01*
X28365071Y-13880129D02*
X28393643Y-13894414D01*
X28450786Y-13894414D01*
X28479357Y-13880129D01*
X28493643Y-13851557D01*
X28493643Y-13837271D01*
X28479357Y-13808700D01*
X28450786Y-13794414D01*
X28407928Y-13794414D01*
X28379357Y-13780129D01*
X28365071Y-13751557D01*
X28365071Y-13737271D01*
X28379357Y-13708700D01*
X28407928Y-13694414D01*
X28450786Y-13694414D01*
X28479357Y-13708700D01*
X28593643Y-14008700D02*
X28607928Y-13994414D01*
X28636500Y-13951557D01*
X28650786Y-13922986D01*
X28665071Y-13880129D01*
X28679357Y-13808700D01*
X28679357Y-13751557D01*
X28665071Y-13680129D01*
X28650786Y-13637271D01*
X28636500Y-13608700D01*
X28607928Y-13565843D01*
X28593643Y-13551557D01*
X21785700Y-14103900D02*
X21785700Y-14205500D01*
X21734900Y-14154700D02*
X21836500Y-14154700D01*
X22265071Y-14290414D02*
X22093643Y-14290414D01*
X22179357Y-14290414D02*
X22179357Y-13990414D01*
X22150786Y-14033271D01*
X22122214Y-14061843D01*
X22093643Y-14076129D01*
X22393643Y-14261843D02*
X22407928Y-14276129D01*
X22393643Y-14290414D01*
X22379357Y-14276129D01*
X22393643Y-14261843D01*
X22393643Y-14290414D01*
X22593643Y-13990414D02*
X22622214Y-13990414D01*
X22650786Y-14004700D01*
X22665071Y-14018986D01*
X22679357Y-14047557D01*
X22693643Y-14104700D01*
X22693643Y-14176129D01*
X22679357Y-14233271D01*
X22665071Y-14261843D01*
X22650786Y-14276129D01*
X22622214Y-14290414D01*
X22593643Y-14290414D01*
X22565071Y-14276129D01*
X22550786Y-14261843D01*
X22536500Y-14233271D01*
X22522214Y-14176129D01*
X22522214Y-14104700D01*
X22536500Y-14047557D01*
X22550786Y-14018986D01*
X22565071Y-14004700D01*
X22593643Y-13990414D01*
X22807928Y-14018986D02*
X22822214Y-14004700D01*
X22850786Y-13990414D01*
X22922214Y-13990414D01*
X22950786Y-14004700D01*
X22965071Y-14018986D01*
X22979357Y-14047557D01*
X22979357Y-14076129D01*
X22965071Y-14118986D01*
X22793643Y-14290414D01*
X22979357Y-14290414D01*
X23107928Y-14290414D02*
X23107928Y-14090414D01*
X23107928Y-14118986D02*
X23122214Y-14104700D01*
X23150786Y-14090414D01*
X23193643Y-14090414D01*
X23222214Y-14104700D01*
X23236500Y-14133271D01*
X23236500Y-14290414D01*
X23236500Y-14133271D02*
X23250786Y-14104700D01*
X23279357Y-14090414D01*
X23322214Y-14090414D01*
X23350786Y-14104700D01*
X23365071Y-14133271D01*
X23365071Y-14290414D01*
X23507928Y-14290414D02*
X23507928Y-14090414D01*
X23507928Y-14118986D02*
X23522214Y-14104700D01*
X23550786Y-14090414D01*
X23593643Y-14090414D01*
X23622214Y-14104700D01*
X23636500Y-14133271D01*
X23636500Y-14290414D01*
X23636500Y-14133271D02*
X23650786Y-14104700D01*
X23679357Y-14090414D01*
X23722214Y-14090414D01*
X23750786Y-14104700D01*
X23765071Y-14133271D01*
X23765071Y-14290414D01*
X24350786Y-13976129D02*
X24093643Y-14361843D01*
X24736500Y-13990414D02*
X24765071Y-13990414D01*
X24793643Y-14004700D01*
X24807928Y-14018986D01*
X24822214Y-14047557D01*
X24836500Y-14104700D01*
X24836500Y-14176129D01*
X24822214Y-14233271D01*
X24807928Y-14261843D01*
X24793643Y-14276129D01*
X24765071Y-14290414D01*
X24736500Y-14290414D01*
X24707928Y-14276129D01*
X24693643Y-14261843D01*
X24679357Y-14233271D01*
X24665071Y-14176129D01*
X24665071Y-14104700D01*
X24679357Y-14047557D01*
X24693643Y-14018986D01*
X24707928Y-14004700D01*
X24736500Y-13990414D01*
X24965071Y-14261843D02*
X24979357Y-14276129D01*
X24965071Y-14290414D01*
X24950786Y-14276129D01*
X24965071Y-14261843D01*
X24965071Y-14290414D01*
X25165071Y-13990414D02*
X25193643Y-13990414D01*
X25222214Y-14004700D01*
X25236500Y-14018986D01*
X25250785Y-14047557D01*
X25265071Y-14104700D01*
X25265071Y-14176129D01*
X25250785Y-14233271D01*
X25236500Y-14261843D01*
X25222214Y-14276129D01*
X25193643Y-14290414D01*
X25165071Y-14290414D01*
X25136500Y-14276129D01*
X25122214Y-14261843D01*
X25107928Y-14233271D01*
X25093643Y-14176129D01*
X25093643Y-14104700D01*
X25107928Y-14047557D01*
X25122214Y-14018986D01*
X25136500Y-14004700D01*
X25165071Y-13990414D01*
X25522214Y-14090414D02*
X25522214Y-14290414D01*
X25450785Y-13976129D02*
X25379357Y-14190414D01*
X25565071Y-14190414D01*
X25736500Y-13990414D02*
X25765071Y-13990414D01*
X25793643Y-14004700D01*
X25807928Y-14018986D01*
X25822214Y-14047557D01*
X25836500Y-14104700D01*
X25836500Y-14176129D01*
X25822214Y-14233271D01*
X25807928Y-14261843D01*
X25793643Y-14276129D01*
X25765071Y-14290414D01*
X25736500Y-14290414D01*
X25707928Y-14276129D01*
X25693643Y-14261843D01*
X25679357Y-14233271D01*
X25665071Y-14176129D01*
X25665071Y-14104700D01*
X25679357Y-14047557D01*
X25693643Y-14018986D01*
X25707928Y-14004700D01*
X25736500Y-13990414D01*
X25950786Y-13990414D02*
X25950786Y-14047557D01*
X26065071Y-13990414D02*
X26065071Y-14047557D01*
X26507928Y-14404700D02*
X26493643Y-14390414D01*
X26465071Y-14347557D01*
X26450785Y-14318986D01*
X26436500Y-14276129D01*
X26422214Y-14204700D01*
X26422214Y-14147557D01*
X26436500Y-14076129D01*
X26450785Y-14033271D01*
X26465071Y-14004700D01*
X26493643Y-13961843D01*
X26507928Y-13947557D01*
X26665071Y-14118986D02*
X26636500Y-14104700D01*
X26622214Y-14090414D01*
X26607928Y-14061843D01*
X26607928Y-14047557D01*
X26622214Y-14018986D01*
X26636500Y-14004700D01*
X26665071Y-13990414D01*
X26722214Y-13990414D01*
X26750785Y-14004700D01*
X26765071Y-14018986D01*
X26779357Y-14047557D01*
X26779357Y-14061843D01*
X26765071Y-14090414D01*
X26750785Y-14104700D01*
X26722214Y-14118986D01*
X26665071Y-14118986D01*
X26636500Y-14133271D01*
X26622214Y-14147557D01*
X26607928Y-14176129D01*
X26607928Y-14233271D01*
X26622214Y-14261843D01*
X26636500Y-14276129D01*
X26665071Y-14290414D01*
X26722214Y-14290414D01*
X26750785Y-14276129D01*
X26765071Y-14261843D01*
X26779357Y-14233271D01*
X26779357Y-14176129D01*
X26765071Y-14147557D01*
X26750785Y-14133271D01*
X26722214Y-14118986D01*
X27136500Y-14290414D02*
X27136500Y-13990414D01*
X27265071Y-14290414D02*
X27265071Y-14133271D01*
X27250785Y-14104700D01*
X27222214Y-14090414D01*
X27179357Y-14090414D01*
X27150785Y-14104700D01*
X27136500Y-14118986D01*
X27450785Y-14290414D02*
X27422214Y-14276129D01*
X27407928Y-14261843D01*
X27393643Y-14233271D01*
X27393643Y-14147557D01*
X27407928Y-14118986D01*
X27422214Y-14104700D01*
X27450785Y-14090414D01*
X27493643Y-14090414D01*
X27522214Y-14104700D01*
X27536500Y-14118986D01*
X27550785Y-14147557D01*
X27550785Y-14233271D01*
X27536500Y-14261843D01*
X27522214Y-14276129D01*
X27493643Y-14290414D01*
X27450785Y-14290414D01*
X27722214Y-14290414D02*
X27693643Y-14276129D01*
X27679357Y-14247557D01*
X27679357Y-13990414D01*
X27950786Y-14276129D02*
X27922214Y-14290414D01*
X27865071Y-14290414D01*
X27836500Y-14276129D01*
X27822214Y-14247557D01*
X27822214Y-14133271D01*
X27836500Y-14104700D01*
X27865071Y-14090414D01*
X27922214Y-14090414D01*
X27950786Y-14104700D01*
X27965071Y-14133271D01*
X27965071Y-14161843D01*
X27822214Y-14190414D01*
X28079357Y-14276129D02*
X28107928Y-14290414D01*
X28165071Y-14290414D01*
X28193643Y-14276129D01*
X28207928Y-14247557D01*
X28207928Y-14233271D01*
X28193643Y-14204700D01*
X28165071Y-14190414D01*
X28122214Y-14190414D01*
X28093643Y-14176129D01*
X28079357Y-14147557D01*
X28079357Y-14133271D01*
X28093643Y-14104700D01*
X28122214Y-14090414D01*
X28165071Y-14090414D01*
X28193643Y-14104700D01*
X28307928Y-14404700D02*
X28322214Y-14390414D01*
X28350786Y-14347557D01*
X28365071Y-14318986D01*
X28379357Y-14276129D01*
X28393643Y-14204700D01*
X28393643Y-14147557D01*
X28379357Y-14076129D01*
X28365071Y-14033271D01*
X28350786Y-14004700D01*
X28322214Y-13961843D01*
X28307928Y-13947557D01*
M02*
