G04 #@! TF.FileFunction,Copper,L1,Top,Signal*
%FSLAX46Y46*%
G04 Gerber Fmt 4.6, Leading zero omitted, Abs format (unit mm)*
G04 Created by KiCad (PCBNEW 4.0.2-stable) date Friday, July 22, 2016 'PMt' 01:52:08 PM*
%MOMM*%
G01*
G04 APERTURE LIST*
%ADD10C,0.100000*%
%ADD11R,1.200000X0.750000*%
%ADD12R,2.032000X0.660400*%
%ADD13C,1.000000*%
%ADD14R,2.032000X2.032000*%
%ADD15O,2.032000X2.032000*%
%ADD16R,1.727200X2.032000*%
%ADD17O,1.727200X2.032000*%
%ADD18C,0.762000*%
%ADD19C,0.250000*%
G04 APERTURE END LIST*
D10*
D11*
X239202000Y-90932000D03*
X237302000Y-90932000D03*
D12*
X233970800Y-94015000D03*
X233970800Y-95285000D03*
X233970800Y-96555000D03*
X233970800Y-97825000D03*
X233970800Y-99095000D03*
X233970800Y-100365000D03*
X233970800Y-101635000D03*
X233970800Y-102905000D03*
X233970800Y-104175000D03*
X233970800Y-105445000D03*
X233970800Y-106715000D03*
X233970800Y-107985000D03*
X244029200Y-107985000D03*
X244029200Y-106715000D03*
X244029200Y-105445000D03*
X244029200Y-104175000D03*
X244029200Y-102905000D03*
X244029200Y-101635000D03*
X244029200Y-100365000D03*
X244029200Y-99095000D03*
X244029200Y-97825000D03*
X244029200Y-96555000D03*
X244029200Y-95285000D03*
X244029200Y-94015000D03*
D13*
X242062000Y-90932000D03*
X234696000Y-90932000D03*
X253000000Y-113460000D03*
X236474000Y-112776000D03*
X238506000Y-112776000D03*
X240538000Y-112776000D03*
X242570000Y-112776000D03*
X225000000Y-110460000D03*
X225000000Y-107460000D03*
X225000000Y-104460000D03*
X225000000Y-101460000D03*
X225000000Y-98460000D03*
X225000000Y-95460000D03*
X225000000Y-92460000D03*
X225000000Y-89460000D03*
X253000000Y-89460000D03*
X253000000Y-92460000D03*
X253000000Y-95460000D03*
X253000000Y-98460000D03*
X253000000Y-101460000D03*
X253000000Y-104460000D03*
X252984000Y-107188000D03*
X253000000Y-110460000D03*
D14*
X236982000Y-85598000D03*
D15*
X239522000Y-85598000D03*
D16*
X232918000Y-119126000D03*
D17*
X235458000Y-119126000D03*
X237998000Y-119126000D03*
X240538000Y-119126000D03*
X243078000Y-119126000D03*
X245618000Y-119126000D03*
D18*
X233934000Y-109474000D03*
D19*
X239522000Y-85598000D02*
X239522000Y-88392000D01*
X239522000Y-88392000D02*
X242062000Y-90932000D01*
X242062000Y-90932000D02*
X243332000Y-90932000D01*
X244029200Y-91629200D02*
X244029200Y-94015000D01*
X243332000Y-90932000D02*
X244029200Y-91629200D01*
X239202000Y-90932000D02*
X242062000Y-90932000D01*
X233970800Y-107985000D02*
X233970800Y-109437200D01*
X233970800Y-109437200D02*
X233934000Y-109474000D01*
X236982000Y-85598000D02*
X236982000Y-88646000D01*
X236982000Y-88646000D02*
X234696000Y-90932000D01*
X237302000Y-90932000D02*
X234696000Y-90932000D01*
X233970800Y-94015000D02*
X233970800Y-91657200D01*
X233970800Y-91657200D02*
X234696000Y-90932000D01*
X233970800Y-95285000D02*
X230413000Y-95285000D01*
X230326000Y-89460000D02*
X225000000Y-89460000D01*
X230378000Y-89408000D02*
X230326000Y-89460000D01*
X230378000Y-95250000D02*
X230378000Y-89408000D01*
X230413000Y-95285000D02*
X230378000Y-95250000D01*
X233970800Y-96555000D02*
X229651000Y-96555000D01*
X229612000Y-92460000D02*
X225000000Y-92460000D01*
X229616000Y-92456000D02*
X229612000Y-92460000D01*
X229616000Y-96520000D02*
X229616000Y-92456000D01*
X229651000Y-96555000D02*
X229616000Y-96520000D01*
X233970800Y-97825000D02*
X228889000Y-97825000D01*
X228810000Y-95460000D02*
X225000000Y-95460000D01*
X228854000Y-95504000D02*
X228810000Y-95460000D01*
X228854000Y-97790000D02*
X228854000Y-95504000D01*
X228889000Y-97825000D02*
X228854000Y-97790000D01*
X233970800Y-99095000D02*
X227873000Y-99095000D01*
X227746000Y-98460000D02*
X225000000Y-98460000D01*
X227838000Y-98552000D02*
X227746000Y-98460000D01*
X227838000Y-99060000D02*
X227838000Y-98552000D01*
X227873000Y-99095000D02*
X227838000Y-99060000D01*
X233970800Y-100365000D02*
X227873000Y-100365000D01*
X227724000Y-101460000D02*
X225000000Y-101460000D01*
X227838000Y-101346000D02*
X227724000Y-101460000D01*
X227838000Y-100400000D02*
X227838000Y-101346000D01*
X227873000Y-100365000D02*
X227838000Y-100400000D01*
X233970800Y-101635000D02*
X228889000Y-101635000D01*
X228788000Y-104460000D02*
X225000000Y-104460000D01*
X228854000Y-104394000D02*
X228788000Y-104460000D01*
X228854000Y-101670000D02*
X228854000Y-104394000D01*
X228889000Y-101635000D02*
X228854000Y-101670000D01*
X233970800Y-102905000D02*
X229651000Y-102905000D01*
X229598000Y-107460000D02*
X225000000Y-107460000D01*
X229616000Y-107442000D02*
X229598000Y-107460000D01*
X229616000Y-102940000D02*
X229616000Y-107442000D01*
X229651000Y-102905000D02*
X229616000Y-102940000D01*
X233970800Y-104175000D02*
X230413000Y-104175000D01*
X230348000Y-110460000D02*
X225000000Y-110460000D01*
X230378000Y-110490000D02*
X230348000Y-110460000D01*
X230378000Y-104210000D02*
X230378000Y-110490000D01*
X230413000Y-104175000D02*
X230378000Y-104210000D01*
X236474000Y-112776000D02*
X236474000Y-114554000D01*
X237998000Y-116078000D02*
X237998000Y-119126000D01*
X236474000Y-114554000D02*
X237998000Y-116078000D01*
X233970800Y-105445000D02*
X232629000Y-105445000D01*
X233172000Y-112776000D02*
X236474000Y-112776000D01*
X232156000Y-111760000D02*
X233172000Y-112776000D01*
X232156000Y-105918000D02*
X232156000Y-111760000D01*
X232629000Y-105445000D02*
X232156000Y-105918000D01*
X238506000Y-112776000D02*
X238506000Y-114554000D01*
X240538000Y-116586000D02*
X240538000Y-119126000D01*
X238506000Y-114554000D02*
X240538000Y-116586000D01*
X233970800Y-106715000D02*
X236509000Y-106715000D01*
X238506000Y-108712000D02*
X238506000Y-112776000D01*
X236509000Y-106715000D02*
X238506000Y-108712000D01*
X242570000Y-112776000D02*
X242570000Y-113284000D01*
X245618000Y-116332000D02*
X245618000Y-119126000D01*
X242570000Y-113284000D02*
X245618000Y-116332000D01*
X244029200Y-107985000D02*
X244029200Y-111316800D01*
X244029200Y-111316800D02*
X242570000Y-112776000D01*
X240538000Y-112776000D02*
X240538000Y-113538000D01*
X243078000Y-116078000D02*
X243078000Y-119126000D01*
X240538000Y-113538000D02*
X243078000Y-116078000D01*
X244029200Y-106715000D02*
X242281000Y-106715000D01*
X240538000Y-108458000D02*
X240538000Y-112776000D01*
X242281000Y-106715000D02*
X240538000Y-108458000D01*
X253000000Y-113460000D02*
X253000000Y-118856000D01*
X237744000Y-121412000D02*
X235458000Y-119126000D01*
X250444000Y-121412000D02*
X237744000Y-121412000D01*
X253000000Y-118856000D02*
X250444000Y-121412000D01*
X244029200Y-105445000D02*
X246853000Y-105445000D01*
X246966000Y-113460000D02*
X253000000Y-113460000D01*
X246888000Y-113538000D02*
X246966000Y-113460000D01*
X246888000Y-105480000D02*
X246888000Y-113538000D01*
X246853000Y-105445000D02*
X246888000Y-105480000D01*
X244029200Y-104175000D02*
X247615000Y-104175000D01*
X247680000Y-110460000D02*
X253000000Y-110460000D01*
X247650000Y-110490000D02*
X247680000Y-110460000D01*
X247650000Y-104210000D02*
X247650000Y-110490000D01*
X247615000Y-104175000D02*
X247650000Y-104210000D01*
X244029200Y-102905000D02*
X248377000Y-102905000D01*
X248412000Y-107188000D02*
X252984000Y-107188000D01*
X248412000Y-102940000D02*
X248412000Y-107188000D01*
X248377000Y-102905000D02*
X248412000Y-102940000D01*
X244029200Y-101635000D02*
X249139000Y-101635000D01*
X249240000Y-104460000D02*
X253000000Y-104460000D01*
X249174000Y-104394000D02*
X249240000Y-104460000D01*
X249174000Y-101670000D02*
X249174000Y-104394000D01*
X249139000Y-101635000D02*
X249174000Y-101670000D01*
X244029200Y-100365000D02*
X249901000Y-100365000D01*
X250050000Y-101460000D02*
X253000000Y-101460000D01*
X249936000Y-101346000D02*
X250050000Y-101460000D01*
X249936000Y-100400000D02*
X249936000Y-101346000D01*
X249901000Y-100365000D02*
X249936000Y-100400000D01*
X244029200Y-99095000D02*
X249901000Y-99095000D01*
X250028000Y-98460000D02*
X253000000Y-98460000D01*
X249936000Y-98552000D02*
X250028000Y-98460000D01*
X249936000Y-99060000D02*
X249936000Y-98552000D01*
X249901000Y-99095000D02*
X249936000Y-99060000D01*
X244029200Y-97825000D02*
X249139000Y-97825000D01*
X249218000Y-95460000D02*
X253000000Y-95460000D01*
X249174000Y-95504000D02*
X249218000Y-95460000D01*
X249174000Y-97790000D02*
X249174000Y-95504000D01*
X249139000Y-97825000D02*
X249174000Y-97790000D01*
X244029200Y-96555000D02*
X248377000Y-96555000D01*
X248416000Y-92460000D02*
X253000000Y-92460000D01*
X248412000Y-92456000D02*
X248416000Y-92460000D01*
X248412000Y-96520000D02*
X248412000Y-92456000D01*
X248377000Y-96555000D02*
X248412000Y-96520000D01*
X244029200Y-95285000D02*
X247615000Y-95285000D01*
X247702000Y-89460000D02*
X253000000Y-89460000D01*
X247650000Y-89408000D02*
X247702000Y-89460000D01*
X247650000Y-95250000D02*
X247650000Y-89408000D01*
X247615000Y-95285000D02*
X247650000Y-95250000D01*
M02*
