G04 #@! TF.FileFunction,Legend,Bot*
%FSLAX46Y46*%
G04 Gerber Fmt 4.6, Leading zero omitted, Abs format (unit mm)*
G04 Created by KiCad (PCBNEW 4.0.2-stable) date Monday, July 11, 2016 'AMt' 10:39:28 AM*
%MOMM*%
G01*
G04 APERTURE LIST*
%ADD10C,0.100000*%
%ADD11C,0.150000*%
%ADD12C,0.088900*%
G04 APERTURE END LIST*
D10*
D11*
X248166000Y-114213000D02*
X249166000Y-114213000D01*
X249166000Y-112863000D02*
X248166000Y-112863000D01*
X229798500Y-109815000D02*
X228798500Y-109815000D01*
X228798500Y-111165000D02*
X229798500Y-111165000D01*
X229862000Y-106767000D02*
X228862000Y-106767000D01*
X228862000Y-108117000D02*
X229862000Y-108117000D01*
X229862000Y-103719000D02*
X228862000Y-103719000D01*
X228862000Y-105069000D02*
X229862000Y-105069000D01*
X229862000Y-100671000D02*
X228862000Y-100671000D01*
X228862000Y-102021000D02*
X229862000Y-102021000D01*
X229862000Y-97623000D02*
X228862000Y-97623000D01*
X228862000Y-98973000D02*
X229862000Y-98973000D01*
X229862000Y-94829000D02*
X228862000Y-94829000D01*
X228862000Y-96179000D02*
X229862000Y-96179000D01*
X229862000Y-91781000D02*
X228862000Y-91781000D01*
X228862000Y-93131000D02*
X229862000Y-93131000D01*
X229862000Y-88733000D02*
X228862000Y-88733000D01*
X228862000Y-90083000D02*
X229862000Y-90083000D01*
X248166000Y-90083000D02*
X249166000Y-90083000D01*
X249166000Y-88733000D02*
X248166000Y-88733000D01*
X248166000Y-93131000D02*
X249166000Y-93131000D01*
X249166000Y-91781000D02*
X248166000Y-91781000D01*
X248166000Y-96179000D02*
X249166000Y-96179000D01*
X249166000Y-94829000D02*
X248166000Y-94829000D01*
X248166000Y-99227000D02*
X249166000Y-99227000D01*
X249166000Y-97877000D02*
X248166000Y-97877000D01*
X248166000Y-102021000D02*
X249166000Y-102021000D01*
X249166000Y-100671000D02*
X248166000Y-100671000D01*
X248166000Y-105069000D02*
X249166000Y-105069000D01*
X249166000Y-103719000D02*
X248166000Y-103719000D01*
X248166000Y-107863000D02*
X249166000Y-107863000D01*
X249166000Y-106513000D02*
X248166000Y-106513000D01*
X248166000Y-111165000D02*
X249166000Y-111165000D01*
X249166000Y-109815000D02*
X248166000Y-109815000D01*
D12*
X239701524Y-97982238D02*
X238431524Y-97982238D01*
X239580571Y-99312714D02*
X239641048Y-99252238D01*
X239701524Y-99070809D01*
X239701524Y-98949857D01*
X239641048Y-98768429D01*
X239520095Y-98647476D01*
X239399143Y-98587000D01*
X239157238Y-98526524D01*
X238975810Y-98526524D01*
X238733905Y-98587000D01*
X238612952Y-98647476D01*
X238492000Y-98768429D01*
X238431524Y-98949857D01*
X238431524Y-99070809D01*
X238492000Y-99252238D01*
X238552476Y-99312714D01*
X239701524Y-100522238D02*
X239701524Y-99796524D01*
X239701524Y-100159381D02*
X238431524Y-100159381D01*
X238612952Y-100038429D01*
X238733905Y-99917476D01*
X238794381Y-99796524D01*
X241080381Y-91967397D02*
X241080381Y-92814064D01*
X241382762Y-91483588D02*
X241685143Y-92390730D01*
X240898953Y-92390730D01*
X240173238Y-91544064D02*
X240052286Y-91544064D01*
X239931334Y-91604540D01*
X239870857Y-91665016D01*
X239810381Y-91785969D01*
X239749905Y-92027873D01*
X239749905Y-92330254D01*
X239810381Y-92572159D01*
X239870857Y-92693111D01*
X239931334Y-92753588D01*
X240052286Y-92814064D01*
X240173238Y-92814064D01*
X240294191Y-92753588D01*
X240354667Y-92693111D01*
X240415143Y-92572159D01*
X240475619Y-92330254D01*
X240475619Y-92027873D01*
X240415143Y-91785969D01*
X240354667Y-91665016D01*
X240294191Y-91604540D01*
X240173238Y-91544064D01*
X238661333Y-91544064D02*
X238903238Y-91544064D01*
X239024190Y-91604540D01*
X239084667Y-91665016D01*
X239205619Y-91846445D01*
X239266095Y-92088350D01*
X239266095Y-92572159D01*
X239205619Y-92693111D01*
X239145143Y-92753588D01*
X239024190Y-92814064D01*
X238782286Y-92814064D01*
X238661333Y-92753588D01*
X238600857Y-92693111D01*
X238540381Y-92572159D01*
X238540381Y-92269778D01*
X238600857Y-92148826D01*
X238661333Y-92088350D01*
X238782286Y-92027873D01*
X239024190Y-92027873D01*
X239145143Y-92088350D01*
X239205619Y-92148826D01*
X239266095Y-92269778D01*
X238117047Y-91544064D02*
X237270381Y-91544064D01*
X237814666Y-92814064D01*
X236786571Y-92814064D02*
X236786571Y-91544064D01*
X236484190Y-91544064D01*
X236302762Y-91604540D01*
X236181809Y-91725492D01*
X236121333Y-91846445D01*
X236060857Y-92088350D01*
X236060857Y-92269778D01*
X236121333Y-92511683D01*
X236181809Y-92632635D01*
X236302762Y-92753588D01*
X236484190Y-92814064D01*
X236786571Y-92814064D01*
D11*
X248832666Y-112090381D02*
X249166000Y-111614190D01*
X249404095Y-112090381D02*
X249404095Y-111090381D01*
X249023142Y-111090381D01*
X248927904Y-111138000D01*
X248880285Y-111185619D01*
X248832666Y-111280857D01*
X248832666Y-111423714D01*
X248880285Y-111518952D01*
X248927904Y-111566571D01*
X249023142Y-111614190D01*
X249404095Y-111614190D01*
X247880285Y-112090381D02*
X248451714Y-112090381D01*
X248166000Y-112090381D02*
X248166000Y-111090381D01*
X248261238Y-111233238D01*
X248356476Y-111328476D01*
X248451714Y-111376095D01*
X229465166Y-112842381D02*
X229798500Y-112366190D01*
X230036595Y-112842381D02*
X230036595Y-111842381D01*
X229655642Y-111842381D01*
X229560404Y-111890000D01*
X229512785Y-111937619D01*
X229465166Y-112032857D01*
X229465166Y-112175714D01*
X229512785Y-112270952D01*
X229560404Y-112318571D01*
X229655642Y-112366190D01*
X230036595Y-112366190D01*
X229084214Y-111937619D02*
X229036595Y-111890000D01*
X228941357Y-111842381D01*
X228703261Y-111842381D01*
X228608023Y-111890000D01*
X228560404Y-111937619D01*
X228512785Y-112032857D01*
X228512785Y-112128095D01*
X228560404Y-112270952D01*
X229131833Y-112842381D01*
X228512785Y-112842381D01*
X229528666Y-109794381D02*
X229862000Y-109318190D01*
X230100095Y-109794381D02*
X230100095Y-108794381D01*
X229719142Y-108794381D01*
X229623904Y-108842000D01*
X229576285Y-108889619D01*
X229528666Y-108984857D01*
X229528666Y-109127714D01*
X229576285Y-109222952D01*
X229623904Y-109270571D01*
X229719142Y-109318190D01*
X230100095Y-109318190D01*
X229195333Y-108794381D02*
X228576285Y-108794381D01*
X228909619Y-109175333D01*
X228766761Y-109175333D01*
X228671523Y-109222952D01*
X228623904Y-109270571D01*
X228576285Y-109365810D01*
X228576285Y-109603905D01*
X228623904Y-109699143D01*
X228671523Y-109746762D01*
X228766761Y-109794381D01*
X229052476Y-109794381D01*
X229147714Y-109746762D01*
X229195333Y-109699143D01*
X229528666Y-106746381D02*
X229862000Y-106270190D01*
X230100095Y-106746381D02*
X230100095Y-105746381D01*
X229719142Y-105746381D01*
X229623904Y-105794000D01*
X229576285Y-105841619D01*
X229528666Y-105936857D01*
X229528666Y-106079714D01*
X229576285Y-106174952D01*
X229623904Y-106222571D01*
X229719142Y-106270190D01*
X230100095Y-106270190D01*
X228671523Y-106079714D02*
X228671523Y-106746381D01*
X228909619Y-105698762D02*
X229147714Y-106413048D01*
X228528666Y-106413048D01*
X229528666Y-103698381D02*
X229862000Y-103222190D01*
X230100095Y-103698381D02*
X230100095Y-102698381D01*
X229719142Y-102698381D01*
X229623904Y-102746000D01*
X229576285Y-102793619D01*
X229528666Y-102888857D01*
X229528666Y-103031714D01*
X229576285Y-103126952D01*
X229623904Y-103174571D01*
X229719142Y-103222190D01*
X230100095Y-103222190D01*
X228623904Y-102698381D02*
X229100095Y-102698381D01*
X229147714Y-103174571D01*
X229100095Y-103126952D01*
X229004857Y-103079333D01*
X228766761Y-103079333D01*
X228671523Y-103126952D01*
X228623904Y-103174571D01*
X228576285Y-103269810D01*
X228576285Y-103507905D01*
X228623904Y-103603143D01*
X228671523Y-103650762D01*
X228766761Y-103698381D01*
X229004857Y-103698381D01*
X229100095Y-103650762D01*
X229147714Y-103603143D01*
X229528666Y-100650381D02*
X229862000Y-100174190D01*
X230100095Y-100650381D02*
X230100095Y-99650381D01*
X229719142Y-99650381D01*
X229623904Y-99698000D01*
X229576285Y-99745619D01*
X229528666Y-99840857D01*
X229528666Y-99983714D01*
X229576285Y-100078952D01*
X229623904Y-100126571D01*
X229719142Y-100174190D01*
X230100095Y-100174190D01*
X228671523Y-99650381D02*
X228862000Y-99650381D01*
X228957238Y-99698000D01*
X229004857Y-99745619D01*
X229100095Y-99888476D01*
X229147714Y-100078952D01*
X229147714Y-100459905D01*
X229100095Y-100555143D01*
X229052476Y-100602762D01*
X228957238Y-100650381D01*
X228766761Y-100650381D01*
X228671523Y-100602762D01*
X228623904Y-100555143D01*
X228576285Y-100459905D01*
X228576285Y-100221810D01*
X228623904Y-100126571D01*
X228671523Y-100078952D01*
X228766761Y-100031333D01*
X228957238Y-100031333D01*
X229052476Y-100078952D01*
X229100095Y-100126571D01*
X229147714Y-100221810D01*
X229528666Y-97856381D02*
X229862000Y-97380190D01*
X230100095Y-97856381D02*
X230100095Y-96856381D01*
X229719142Y-96856381D01*
X229623904Y-96904000D01*
X229576285Y-96951619D01*
X229528666Y-97046857D01*
X229528666Y-97189714D01*
X229576285Y-97284952D01*
X229623904Y-97332571D01*
X229719142Y-97380190D01*
X230100095Y-97380190D01*
X229195333Y-96856381D02*
X228528666Y-96856381D01*
X228957238Y-97856381D01*
X229528666Y-94808381D02*
X229862000Y-94332190D01*
X230100095Y-94808381D02*
X230100095Y-93808381D01*
X229719142Y-93808381D01*
X229623904Y-93856000D01*
X229576285Y-93903619D01*
X229528666Y-93998857D01*
X229528666Y-94141714D01*
X229576285Y-94236952D01*
X229623904Y-94284571D01*
X229719142Y-94332190D01*
X230100095Y-94332190D01*
X228957238Y-94236952D02*
X229052476Y-94189333D01*
X229100095Y-94141714D01*
X229147714Y-94046476D01*
X229147714Y-93998857D01*
X229100095Y-93903619D01*
X229052476Y-93856000D01*
X228957238Y-93808381D01*
X228766761Y-93808381D01*
X228671523Y-93856000D01*
X228623904Y-93903619D01*
X228576285Y-93998857D01*
X228576285Y-94046476D01*
X228623904Y-94141714D01*
X228671523Y-94189333D01*
X228766761Y-94236952D01*
X228957238Y-94236952D01*
X229052476Y-94284571D01*
X229100095Y-94332190D01*
X229147714Y-94427429D01*
X229147714Y-94617905D01*
X229100095Y-94713143D01*
X229052476Y-94760762D01*
X228957238Y-94808381D01*
X228766761Y-94808381D01*
X228671523Y-94760762D01*
X228623904Y-94713143D01*
X228576285Y-94617905D01*
X228576285Y-94427429D01*
X228623904Y-94332190D01*
X228671523Y-94284571D01*
X228766761Y-94236952D01*
X229528666Y-91760381D02*
X229862000Y-91284190D01*
X230100095Y-91760381D02*
X230100095Y-90760381D01*
X229719142Y-90760381D01*
X229623904Y-90808000D01*
X229576285Y-90855619D01*
X229528666Y-90950857D01*
X229528666Y-91093714D01*
X229576285Y-91188952D01*
X229623904Y-91236571D01*
X229719142Y-91284190D01*
X230100095Y-91284190D01*
X229052476Y-91760381D02*
X228862000Y-91760381D01*
X228766761Y-91712762D01*
X228719142Y-91665143D01*
X228623904Y-91522286D01*
X228576285Y-91331810D01*
X228576285Y-90950857D01*
X228623904Y-90855619D01*
X228671523Y-90808000D01*
X228766761Y-90760381D01*
X228957238Y-90760381D01*
X229052476Y-90808000D01*
X229100095Y-90855619D01*
X229147714Y-90950857D01*
X229147714Y-91188952D01*
X229100095Y-91284190D01*
X229052476Y-91331810D01*
X228957238Y-91379429D01*
X228766761Y-91379429D01*
X228671523Y-91331810D01*
X228623904Y-91284190D01*
X228576285Y-91188952D01*
X249308857Y-87960381D02*
X249642191Y-87484190D01*
X249880286Y-87960381D02*
X249880286Y-86960381D01*
X249499333Y-86960381D01*
X249404095Y-87008000D01*
X249356476Y-87055619D01*
X249308857Y-87150857D01*
X249308857Y-87293714D01*
X249356476Y-87388952D01*
X249404095Y-87436571D01*
X249499333Y-87484190D01*
X249880286Y-87484190D01*
X248356476Y-87960381D02*
X248927905Y-87960381D01*
X248642191Y-87960381D02*
X248642191Y-86960381D01*
X248737429Y-87103238D01*
X248832667Y-87198476D01*
X248927905Y-87246095D01*
X247737429Y-86960381D02*
X247642190Y-86960381D01*
X247546952Y-87008000D01*
X247499333Y-87055619D01*
X247451714Y-87150857D01*
X247404095Y-87341333D01*
X247404095Y-87579429D01*
X247451714Y-87769905D01*
X247499333Y-87865143D01*
X247546952Y-87912762D01*
X247642190Y-87960381D01*
X247737429Y-87960381D01*
X247832667Y-87912762D01*
X247880286Y-87865143D01*
X247927905Y-87769905D01*
X247975524Y-87579429D01*
X247975524Y-87341333D01*
X247927905Y-87150857D01*
X247880286Y-87055619D01*
X247832667Y-87008000D01*
X247737429Y-86960381D01*
X249308857Y-91008381D02*
X249642191Y-90532190D01*
X249880286Y-91008381D02*
X249880286Y-90008381D01*
X249499333Y-90008381D01*
X249404095Y-90056000D01*
X249356476Y-90103619D01*
X249308857Y-90198857D01*
X249308857Y-90341714D01*
X249356476Y-90436952D01*
X249404095Y-90484571D01*
X249499333Y-90532190D01*
X249880286Y-90532190D01*
X248356476Y-91008381D02*
X248927905Y-91008381D01*
X248642191Y-91008381D02*
X248642191Y-90008381D01*
X248737429Y-90151238D01*
X248832667Y-90246476D01*
X248927905Y-90294095D01*
X247404095Y-91008381D02*
X247975524Y-91008381D01*
X247689810Y-91008381D02*
X247689810Y-90008381D01*
X247785048Y-90151238D01*
X247880286Y-90246476D01*
X247975524Y-90294095D01*
X249308857Y-94056381D02*
X249642191Y-93580190D01*
X249880286Y-94056381D02*
X249880286Y-93056381D01*
X249499333Y-93056381D01*
X249404095Y-93104000D01*
X249356476Y-93151619D01*
X249308857Y-93246857D01*
X249308857Y-93389714D01*
X249356476Y-93484952D01*
X249404095Y-93532571D01*
X249499333Y-93580190D01*
X249880286Y-93580190D01*
X248356476Y-94056381D02*
X248927905Y-94056381D01*
X248642191Y-94056381D02*
X248642191Y-93056381D01*
X248737429Y-93199238D01*
X248832667Y-93294476D01*
X248927905Y-93342095D01*
X247975524Y-93151619D02*
X247927905Y-93104000D01*
X247832667Y-93056381D01*
X247594571Y-93056381D01*
X247499333Y-93104000D01*
X247451714Y-93151619D01*
X247404095Y-93246857D01*
X247404095Y-93342095D01*
X247451714Y-93484952D01*
X248023143Y-94056381D01*
X247404095Y-94056381D01*
X249308857Y-97104381D02*
X249642191Y-96628190D01*
X249880286Y-97104381D02*
X249880286Y-96104381D01*
X249499333Y-96104381D01*
X249404095Y-96152000D01*
X249356476Y-96199619D01*
X249308857Y-96294857D01*
X249308857Y-96437714D01*
X249356476Y-96532952D01*
X249404095Y-96580571D01*
X249499333Y-96628190D01*
X249880286Y-96628190D01*
X248356476Y-97104381D02*
X248927905Y-97104381D01*
X248642191Y-97104381D02*
X248642191Y-96104381D01*
X248737429Y-96247238D01*
X248832667Y-96342476D01*
X248927905Y-96390095D01*
X248023143Y-96104381D02*
X247404095Y-96104381D01*
X247737429Y-96485333D01*
X247594571Y-96485333D01*
X247499333Y-96532952D01*
X247451714Y-96580571D01*
X247404095Y-96675810D01*
X247404095Y-96913905D01*
X247451714Y-97009143D01*
X247499333Y-97056762D01*
X247594571Y-97104381D01*
X247880286Y-97104381D01*
X247975524Y-97056762D01*
X248023143Y-97009143D01*
X249308857Y-99898381D02*
X249642191Y-99422190D01*
X249880286Y-99898381D02*
X249880286Y-98898381D01*
X249499333Y-98898381D01*
X249404095Y-98946000D01*
X249356476Y-98993619D01*
X249308857Y-99088857D01*
X249308857Y-99231714D01*
X249356476Y-99326952D01*
X249404095Y-99374571D01*
X249499333Y-99422190D01*
X249880286Y-99422190D01*
X248356476Y-99898381D02*
X248927905Y-99898381D01*
X248642191Y-99898381D02*
X248642191Y-98898381D01*
X248737429Y-99041238D01*
X248832667Y-99136476D01*
X248927905Y-99184095D01*
X247499333Y-99231714D02*
X247499333Y-99898381D01*
X247737429Y-98850762D02*
X247975524Y-99565048D01*
X247356476Y-99565048D01*
X249308857Y-102946381D02*
X249642191Y-102470190D01*
X249880286Y-102946381D02*
X249880286Y-101946381D01*
X249499333Y-101946381D01*
X249404095Y-101994000D01*
X249356476Y-102041619D01*
X249308857Y-102136857D01*
X249308857Y-102279714D01*
X249356476Y-102374952D01*
X249404095Y-102422571D01*
X249499333Y-102470190D01*
X249880286Y-102470190D01*
X248356476Y-102946381D02*
X248927905Y-102946381D01*
X248642191Y-102946381D02*
X248642191Y-101946381D01*
X248737429Y-102089238D01*
X248832667Y-102184476D01*
X248927905Y-102232095D01*
X247451714Y-101946381D02*
X247927905Y-101946381D01*
X247975524Y-102422571D01*
X247927905Y-102374952D01*
X247832667Y-102327333D01*
X247594571Y-102327333D01*
X247499333Y-102374952D01*
X247451714Y-102422571D01*
X247404095Y-102517810D01*
X247404095Y-102755905D01*
X247451714Y-102851143D01*
X247499333Y-102898762D01*
X247594571Y-102946381D01*
X247832667Y-102946381D01*
X247927905Y-102898762D01*
X247975524Y-102851143D01*
X249308857Y-105740381D02*
X249642191Y-105264190D01*
X249880286Y-105740381D02*
X249880286Y-104740381D01*
X249499333Y-104740381D01*
X249404095Y-104788000D01*
X249356476Y-104835619D01*
X249308857Y-104930857D01*
X249308857Y-105073714D01*
X249356476Y-105168952D01*
X249404095Y-105216571D01*
X249499333Y-105264190D01*
X249880286Y-105264190D01*
X248356476Y-105740381D02*
X248927905Y-105740381D01*
X248642191Y-105740381D02*
X248642191Y-104740381D01*
X248737429Y-104883238D01*
X248832667Y-104978476D01*
X248927905Y-105026095D01*
X247499333Y-104740381D02*
X247689810Y-104740381D01*
X247785048Y-104788000D01*
X247832667Y-104835619D01*
X247927905Y-104978476D01*
X247975524Y-105168952D01*
X247975524Y-105549905D01*
X247927905Y-105645143D01*
X247880286Y-105692762D01*
X247785048Y-105740381D01*
X247594571Y-105740381D01*
X247499333Y-105692762D01*
X247451714Y-105645143D01*
X247404095Y-105549905D01*
X247404095Y-105311810D01*
X247451714Y-105216571D01*
X247499333Y-105168952D01*
X247594571Y-105121333D01*
X247785048Y-105121333D01*
X247880286Y-105168952D01*
X247927905Y-105216571D01*
X247975524Y-105311810D01*
X249308857Y-109042381D02*
X249642191Y-108566190D01*
X249880286Y-109042381D02*
X249880286Y-108042381D01*
X249499333Y-108042381D01*
X249404095Y-108090000D01*
X249356476Y-108137619D01*
X249308857Y-108232857D01*
X249308857Y-108375714D01*
X249356476Y-108470952D01*
X249404095Y-108518571D01*
X249499333Y-108566190D01*
X249880286Y-108566190D01*
X248356476Y-109042381D02*
X248927905Y-109042381D01*
X248642191Y-109042381D02*
X248642191Y-108042381D01*
X248737429Y-108185238D01*
X248832667Y-108280476D01*
X248927905Y-108328095D01*
X248023143Y-108042381D02*
X247356476Y-108042381D01*
X247785048Y-109042381D01*
M02*
