G04 #@! TF.FileFunction,Legend,Top*
%FSLAX46Y46*%
G04 Gerber Fmt 4.6, Leading zero omitted, Abs format (unit mm)*
G04 Created by KiCad (PCBNEW 4.0.2-stable) date Monday, July 11, 2016 'AMt' 10:39:28 AM*
%MOMM*%
G01*
G04 APERTURE LIST*
%ADD10C,0.100000*%
%ADD11C,0.150000*%
%ADD12C,0.066040*%
%ADD13C,0.152400*%
%ADD14C,0.050800*%
G04 APERTURE END LIST*
D10*
D11*
X235296000Y-86772000D02*
X235296000Y-87472000D01*
X234096000Y-87472000D02*
X234096000Y-86772000D01*
D12*
X235139200Y-93763540D02*
X235139200Y-94269000D01*
X235139200Y-94269000D02*
X235266200Y-94269000D01*
X235266200Y-93763540D02*
X235266200Y-94269000D01*
X235139200Y-93763540D02*
X235266200Y-93763540D01*
X233666000Y-93763540D02*
X233666000Y-94269000D01*
X233666000Y-94269000D02*
X235139200Y-94269000D01*
X235139200Y-93763540D02*
X235139200Y-94269000D01*
X233666000Y-93763540D02*
X235139200Y-93763540D01*
X235139200Y-95031000D02*
X235139200Y-95539000D01*
X235139200Y-95539000D02*
X235266200Y-95539000D01*
X235266200Y-95031000D02*
X235266200Y-95539000D01*
X235139200Y-95031000D02*
X235266200Y-95031000D01*
X233666000Y-95031000D02*
X233666000Y-95539000D01*
X233666000Y-95539000D02*
X235139200Y-95539000D01*
X235139200Y-95031000D02*
X235139200Y-95539000D01*
X233666000Y-95031000D02*
X235139200Y-95031000D01*
X235139200Y-96301000D02*
X235139200Y-96809000D01*
X235139200Y-96809000D02*
X235266200Y-96809000D01*
X235266200Y-96301000D02*
X235266200Y-96809000D01*
X235139200Y-96301000D02*
X235266200Y-96301000D01*
X233666000Y-96301000D02*
X233666000Y-96809000D01*
X233666000Y-96809000D02*
X235139200Y-96809000D01*
X235139200Y-96301000D02*
X235139200Y-96809000D01*
X233666000Y-96301000D02*
X235139200Y-96301000D01*
X235139200Y-97571000D02*
X235139200Y-98079000D01*
X235139200Y-98079000D02*
X235266200Y-98079000D01*
X235266200Y-97571000D02*
X235266200Y-98079000D01*
X235139200Y-97571000D02*
X235266200Y-97571000D01*
X233666000Y-97571000D02*
X233666000Y-98079000D01*
X233666000Y-98079000D02*
X235139200Y-98079000D01*
X235139200Y-97571000D02*
X235139200Y-98079000D01*
X233666000Y-97571000D02*
X235139200Y-97571000D01*
X233666000Y-98841000D02*
X233666000Y-99349000D01*
X233666000Y-99349000D02*
X235139200Y-99349000D01*
X235139200Y-98841000D02*
X235139200Y-99349000D01*
X233666000Y-98841000D02*
X235139200Y-98841000D01*
X235139200Y-98841000D02*
X235139200Y-99349000D01*
X235139200Y-99349000D02*
X235266200Y-99349000D01*
X235266200Y-98841000D02*
X235266200Y-99349000D01*
X235139200Y-98841000D02*
X235266200Y-98841000D01*
X235139200Y-100111000D02*
X235139200Y-100619000D01*
X235139200Y-100619000D02*
X235266200Y-100619000D01*
X235266200Y-100111000D02*
X235266200Y-100619000D01*
X235139200Y-100111000D02*
X235266200Y-100111000D01*
X233666000Y-100111000D02*
X233666000Y-100619000D01*
X233666000Y-100619000D02*
X235139200Y-100619000D01*
X235139200Y-100111000D02*
X235139200Y-100619000D01*
X233666000Y-100111000D02*
X235139200Y-100111000D01*
X235139200Y-101381000D02*
X235139200Y-101889000D01*
X235139200Y-101889000D02*
X235266200Y-101889000D01*
X235266200Y-101381000D02*
X235266200Y-101889000D01*
X235139200Y-101381000D02*
X235266200Y-101381000D01*
X233666000Y-101381000D02*
X233666000Y-101889000D01*
X233666000Y-101889000D02*
X235139200Y-101889000D01*
X235139200Y-101381000D02*
X235139200Y-101889000D01*
X233666000Y-101381000D02*
X235139200Y-101381000D01*
X235139200Y-102651000D02*
X235139200Y-103159000D01*
X235139200Y-103159000D02*
X235266200Y-103159000D01*
X235266200Y-102651000D02*
X235266200Y-103159000D01*
X235139200Y-102651000D02*
X235266200Y-102651000D01*
X233666000Y-102651000D02*
X233666000Y-103159000D01*
X233666000Y-103159000D02*
X235139200Y-103159000D01*
X235139200Y-102651000D02*
X235139200Y-103159000D01*
X233666000Y-102651000D02*
X235139200Y-102651000D01*
X242860800Y-93763540D02*
X242860800Y-94269000D01*
X242860800Y-94269000D02*
X244334000Y-94269000D01*
X244334000Y-93763540D02*
X244334000Y-94269000D01*
X242860800Y-93763540D02*
X244334000Y-93763540D01*
X242733800Y-93763540D02*
X242733800Y-94269000D01*
X242733800Y-94269000D02*
X242860800Y-94269000D01*
X242860800Y-93763540D02*
X242860800Y-94269000D01*
X242733800Y-93763540D02*
X242860800Y-93763540D01*
X242733800Y-95031000D02*
X242733800Y-95539000D01*
X242733800Y-95539000D02*
X242860800Y-95539000D01*
X242860800Y-95031000D02*
X242860800Y-95539000D01*
X242733800Y-95031000D02*
X242860800Y-95031000D01*
X242860800Y-95031000D02*
X242860800Y-95539000D01*
X242860800Y-95539000D02*
X244334000Y-95539000D01*
X244334000Y-95031000D02*
X244334000Y-95539000D01*
X242860800Y-95031000D02*
X244334000Y-95031000D01*
X242733800Y-96301000D02*
X242733800Y-96809000D01*
X242733800Y-96809000D02*
X242860800Y-96809000D01*
X242860800Y-96301000D02*
X242860800Y-96809000D01*
X242733800Y-96301000D02*
X242860800Y-96301000D01*
X242860800Y-96301000D02*
X242860800Y-96809000D01*
X242860800Y-96809000D02*
X244334000Y-96809000D01*
X244334000Y-96301000D02*
X244334000Y-96809000D01*
X242860800Y-96301000D02*
X244334000Y-96301000D01*
X242733800Y-97571000D02*
X242733800Y-98079000D01*
X242733800Y-98079000D02*
X242860800Y-98079000D01*
X242860800Y-97571000D02*
X242860800Y-98079000D01*
X242733800Y-97571000D02*
X242860800Y-97571000D01*
X242860800Y-97571000D02*
X242860800Y-98079000D01*
X242860800Y-98079000D02*
X244334000Y-98079000D01*
X244334000Y-97571000D02*
X244334000Y-98079000D01*
X242860800Y-97571000D02*
X244334000Y-97571000D01*
X242733800Y-98841000D02*
X242733800Y-99349000D01*
X242733800Y-99349000D02*
X242860800Y-99349000D01*
X242860800Y-98841000D02*
X242860800Y-99349000D01*
X242733800Y-98841000D02*
X242860800Y-98841000D01*
X242860800Y-98841000D02*
X242860800Y-99349000D01*
X242860800Y-99349000D02*
X244334000Y-99349000D01*
X244334000Y-98841000D02*
X244334000Y-99349000D01*
X242860800Y-98841000D02*
X244334000Y-98841000D01*
X242733800Y-100111000D02*
X242733800Y-100619000D01*
X242733800Y-100619000D02*
X242860800Y-100619000D01*
X242860800Y-100111000D02*
X242860800Y-100619000D01*
X242733800Y-100111000D02*
X242860800Y-100111000D01*
X242860800Y-100111000D02*
X242860800Y-100619000D01*
X242860800Y-100619000D02*
X244334000Y-100619000D01*
X244334000Y-100111000D02*
X244334000Y-100619000D01*
X242860800Y-100111000D02*
X244334000Y-100111000D01*
X242733800Y-101381000D02*
X242733800Y-101889000D01*
X242733800Y-101889000D02*
X242860800Y-101889000D01*
X242860800Y-101381000D02*
X242860800Y-101889000D01*
X242733800Y-101381000D02*
X242860800Y-101381000D01*
X242860800Y-101381000D02*
X242860800Y-101889000D01*
X242860800Y-101889000D02*
X244334000Y-101889000D01*
X244334000Y-101381000D02*
X244334000Y-101889000D01*
X242860800Y-101381000D02*
X244334000Y-101381000D01*
X242733800Y-102651000D02*
X242733800Y-103159000D01*
X242733800Y-103159000D02*
X242860800Y-103159000D01*
X242860800Y-102651000D02*
X242860800Y-103159000D01*
X242733800Y-102651000D02*
X242860800Y-102651000D01*
X242860800Y-102651000D02*
X242860800Y-103159000D01*
X242860800Y-103159000D02*
X244334000Y-103159000D01*
X244334000Y-102651000D02*
X244334000Y-103159000D01*
X242860800Y-102651000D02*
X244334000Y-102651000D01*
X242733800Y-103921000D02*
X242733800Y-104429000D01*
X242733800Y-104429000D02*
X242860800Y-104429000D01*
X242860800Y-103921000D02*
X242860800Y-104429000D01*
X242733800Y-103921000D02*
X242860800Y-103921000D01*
X242733800Y-105191000D02*
X242733800Y-105699000D01*
X242733800Y-105699000D02*
X242860800Y-105699000D01*
X242860800Y-105191000D02*
X242860800Y-105699000D01*
X242733800Y-105191000D02*
X242860800Y-105191000D01*
X242733800Y-106461000D02*
X242733800Y-106969000D01*
X242733800Y-106969000D02*
X242860800Y-106969000D01*
X242860800Y-106461000D02*
X242860800Y-106969000D01*
X242733800Y-106461000D02*
X242860800Y-106461000D01*
X242733800Y-107731000D02*
X242733800Y-108236460D01*
X242733800Y-108236460D02*
X242860800Y-108236460D01*
X242860800Y-107731000D02*
X242860800Y-108236460D01*
X242733800Y-107731000D02*
X242860800Y-107731000D01*
X242860800Y-103921000D02*
X242860800Y-104429000D01*
X242860800Y-104429000D02*
X244334000Y-104429000D01*
X244334000Y-103921000D02*
X244334000Y-104429000D01*
X242860800Y-103921000D02*
X244334000Y-103921000D01*
X242860800Y-105191000D02*
X242860800Y-105699000D01*
X242860800Y-105699000D02*
X244334000Y-105699000D01*
X244334000Y-105191000D02*
X244334000Y-105699000D01*
X242860800Y-105191000D02*
X244334000Y-105191000D01*
X242860800Y-106461000D02*
X242860800Y-106969000D01*
X242860800Y-106969000D02*
X244334000Y-106969000D01*
X244334000Y-106461000D02*
X244334000Y-106969000D01*
X242860800Y-106461000D02*
X244334000Y-106461000D01*
X242860800Y-107731000D02*
X242860800Y-108236460D01*
X242860800Y-108236460D02*
X244334000Y-108236460D01*
X244334000Y-107731000D02*
X244334000Y-108236460D01*
X242860800Y-107731000D02*
X244334000Y-107731000D01*
X235139200Y-103921000D02*
X235139200Y-104429000D01*
X235139200Y-104429000D02*
X235266200Y-104429000D01*
X235266200Y-103921000D02*
X235266200Y-104429000D01*
X235139200Y-103921000D02*
X235266200Y-103921000D01*
X235139200Y-105191000D02*
X235139200Y-105699000D01*
X235139200Y-105699000D02*
X235266200Y-105699000D01*
X235266200Y-105191000D02*
X235266200Y-105699000D01*
X235139200Y-105191000D02*
X235266200Y-105191000D01*
X235139200Y-106461000D02*
X235139200Y-106969000D01*
X235139200Y-106969000D02*
X235266200Y-106969000D01*
X235266200Y-106461000D02*
X235266200Y-106969000D01*
X235139200Y-106461000D02*
X235266200Y-106461000D01*
X235139200Y-107731000D02*
X235139200Y-108236460D01*
X235139200Y-108236460D02*
X235266200Y-108236460D01*
X235266200Y-107731000D02*
X235266200Y-108236460D01*
X235139200Y-107731000D02*
X235266200Y-107731000D01*
X233666000Y-103921000D02*
X233666000Y-104429000D01*
X233666000Y-104429000D02*
X235139200Y-104429000D01*
X235139200Y-103921000D02*
X235139200Y-104429000D01*
X233666000Y-103921000D02*
X235139200Y-103921000D01*
X233666000Y-105191000D02*
X233666000Y-105699000D01*
X233666000Y-105699000D02*
X235139200Y-105699000D01*
X235139200Y-105191000D02*
X235139200Y-105699000D01*
X233666000Y-105191000D02*
X235139200Y-105191000D01*
X233666000Y-106461000D02*
X233666000Y-106969000D01*
X233666000Y-106969000D02*
X235139200Y-106969000D01*
X235139200Y-106461000D02*
X235139200Y-106969000D01*
X233666000Y-106461000D02*
X235139200Y-106461000D01*
X233666000Y-107731000D02*
X233666000Y-108236460D01*
X233666000Y-108236460D02*
X235139200Y-108236460D01*
X235139200Y-107731000D02*
X235139200Y-108236460D01*
X233666000Y-107731000D02*
X235139200Y-107731000D01*
D13*
X242733800Y-108366000D02*
X242733800Y-93634000D01*
X235266200Y-93634000D02*
X235266200Y-108366000D01*
X235647200Y-108747000D02*
X242352800Y-108747000D01*
X242352800Y-93253000D02*
X235647200Y-93253000D01*
D14*
X235621800Y-93253000D02*
X235621800Y-108747000D01*
D13*
X235266200Y-108366000D02*
G75*
G03X235647200Y-108747000I381000J0D01*
G01*
X242733800Y-93634000D02*
G75*
G03X242352800Y-93253000I-381000J0D01*
G01*
X242352800Y-108747000D02*
G75*
G03X242733800Y-108366000I0J381000D01*
G01*
X235647200Y-93253000D02*
G75*
G03X235266200Y-93634000I0J-381000D01*
G01*
X237730000Y-93253000D02*
G75*
G03X240270000Y-93253000I1270000J0D01*
G01*
D11*
X236953143Y-87288666D02*
X237000762Y-87336285D01*
X237048381Y-87479142D01*
X237048381Y-87574380D01*
X237000762Y-87717238D01*
X236905524Y-87812476D01*
X236810286Y-87860095D01*
X236619810Y-87907714D01*
X236476952Y-87907714D01*
X236286476Y-87860095D01*
X236191238Y-87812476D01*
X236096000Y-87717238D01*
X236048381Y-87574380D01*
X236048381Y-87479142D01*
X236096000Y-87336285D01*
X236143619Y-87288666D01*
X237048381Y-86336285D02*
X237048381Y-86907714D01*
X237048381Y-86622000D02*
X236048381Y-86622000D01*
X236191238Y-86717238D01*
X236286476Y-86812476D01*
X236334095Y-86907714D01*
X233934095Y-85550381D02*
X233934095Y-86359905D01*
X233981714Y-86455143D01*
X234029333Y-86502762D01*
X234124571Y-86550381D01*
X234315048Y-86550381D01*
X234410286Y-86502762D01*
X234457905Y-86455143D01*
X234505524Y-86359905D01*
X234505524Y-85550381D01*
X235505524Y-86550381D02*
X234934095Y-86550381D01*
X235219809Y-86550381D02*
X235219809Y-85550381D01*
X235124571Y-85693238D01*
X235029333Y-85788476D01*
X234934095Y-85836095D01*
X233934095Y-93424381D02*
X233934095Y-94233905D01*
X233981714Y-94329143D01*
X234029333Y-94376762D01*
X234124571Y-94424381D01*
X234315048Y-94424381D01*
X234410286Y-94376762D01*
X234457905Y-94329143D01*
X234505524Y-94233905D01*
X234505524Y-93424381D01*
X234934095Y-93519619D02*
X234981714Y-93472000D01*
X235076952Y-93424381D01*
X235315048Y-93424381D01*
X235410286Y-93472000D01*
X235457905Y-93519619D01*
X235505524Y-93614857D01*
X235505524Y-93710095D01*
X235457905Y-93852952D01*
X234886476Y-94424381D01*
X235505524Y-94424381D01*
X252238095Y-115952381D02*
X252238095Y-116761905D01*
X252285714Y-116857143D01*
X252333333Y-116904762D01*
X252428571Y-116952381D01*
X252619048Y-116952381D01*
X252714286Y-116904762D01*
X252761905Y-116857143D01*
X252809524Y-116761905D01*
X252809524Y-115952381D01*
X253190476Y-115952381D02*
X253809524Y-115952381D01*
X253476190Y-116333333D01*
X253619048Y-116333333D01*
X253714286Y-116380952D01*
X253761905Y-116428571D01*
X253809524Y-116523810D01*
X253809524Y-116761905D01*
X253761905Y-116857143D01*
X253714286Y-116904762D01*
X253619048Y-116952381D01*
X253333333Y-116952381D01*
X253238095Y-116904762D01*
X253190476Y-116857143D01*
X230886095Y-117554381D02*
X230886095Y-118363905D01*
X230933714Y-118459143D01*
X230981333Y-118506762D01*
X231076571Y-118554381D01*
X231267048Y-118554381D01*
X231362286Y-118506762D01*
X231409905Y-118459143D01*
X231457524Y-118363905D01*
X231457524Y-117554381D01*
X232362286Y-117887714D02*
X232362286Y-118554381D01*
X232124190Y-117506762D02*
X231886095Y-118221048D01*
X232505143Y-118221048D01*
X233172095Y-117554381D02*
X233172095Y-118363905D01*
X233219714Y-118459143D01*
X233267333Y-118506762D01*
X233362571Y-118554381D01*
X233553048Y-118554381D01*
X233648286Y-118506762D01*
X233695905Y-118459143D01*
X233743524Y-118363905D01*
X233743524Y-117554381D01*
X234695905Y-117554381D02*
X234219714Y-117554381D01*
X234172095Y-118030571D01*
X234219714Y-117982952D01*
X234314952Y-117935333D01*
X234553048Y-117935333D01*
X234648286Y-117982952D01*
X234695905Y-118030571D01*
X234743524Y-118125810D01*
X234743524Y-118363905D01*
X234695905Y-118459143D01*
X234648286Y-118506762D01*
X234553048Y-118554381D01*
X234314952Y-118554381D01*
X234219714Y-118506762D01*
X234172095Y-118459143D01*
X245364095Y-117808381D02*
X245364095Y-118617905D01*
X245411714Y-118713143D01*
X245459333Y-118760762D01*
X245554571Y-118808381D01*
X245745048Y-118808381D01*
X245840286Y-118760762D01*
X245887905Y-118713143D01*
X245935524Y-118617905D01*
X245935524Y-117808381D01*
X246840286Y-117808381D02*
X246649809Y-117808381D01*
X246554571Y-117856000D01*
X246506952Y-117903619D01*
X246411714Y-118046476D01*
X246364095Y-118236952D01*
X246364095Y-118617905D01*
X246411714Y-118713143D01*
X246459333Y-118760762D01*
X246554571Y-118808381D01*
X246745048Y-118808381D01*
X246840286Y-118760762D01*
X246887905Y-118713143D01*
X246935524Y-118617905D01*
X246935524Y-118379810D01*
X246887905Y-118284571D01*
X246840286Y-118236952D01*
X246745048Y-118189333D01*
X246554571Y-118189333D01*
X246459333Y-118236952D01*
X246411714Y-118284571D01*
X246364095Y-118379810D01*
X243078095Y-117808381D02*
X243078095Y-118617905D01*
X243125714Y-118713143D01*
X243173333Y-118760762D01*
X243268571Y-118808381D01*
X243459048Y-118808381D01*
X243554286Y-118760762D01*
X243601905Y-118713143D01*
X243649524Y-118617905D01*
X243649524Y-117808381D01*
X244030476Y-117808381D02*
X244697143Y-117808381D01*
X244268571Y-118808381D01*
X224238095Y-112952381D02*
X224238095Y-113761905D01*
X224285714Y-113857143D01*
X224333333Y-113904762D01*
X224428571Y-113952381D01*
X224619048Y-113952381D01*
X224714286Y-113904762D01*
X224761905Y-113857143D01*
X224809524Y-113761905D01*
X224809524Y-112952381D01*
X225428571Y-113380952D02*
X225333333Y-113333333D01*
X225285714Y-113285714D01*
X225238095Y-113190476D01*
X225238095Y-113142857D01*
X225285714Y-113047619D01*
X225333333Y-113000000D01*
X225428571Y-112952381D01*
X225619048Y-112952381D01*
X225714286Y-113000000D01*
X225761905Y-113047619D01*
X225809524Y-113142857D01*
X225809524Y-113190476D01*
X225761905Y-113285714D01*
X225714286Y-113333333D01*
X225619048Y-113380952D01*
X225428571Y-113380952D01*
X225333333Y-113428571D01*
X225285714Y-113476190D01*
X225238095Y-113571429D01*
X225238095Y-113761905D01*
X225285714Y-113857143D01*
X225333333Y-113904762D01*
X225428571Y-113952381D01*
X225619048Y-113952381D01*
X225714286Y-113904762D01*
X225761905Y-113857143D01*
X225809524Y-113761905D01*
X225809524Y-113571429D01*
X225761905Y-113476190D01*
X225714286Y-113428571D01*
X225619048Y-113380952D01*
X224238095Y-109952381D02*
X224238095Y-110761905D01*
X224285714Y-110857143D01*
X224333333Y-110904762D01*
X224428571Y-110952381D01*
X224619048Y-110952381D01*
X224714286Y-110904762D01*
X224761905Y-110857143D01*
X224809524Y-110761905D01*
X224809524Y-109952381D01*
X225333333Y-110952381D02*
X225523809Y-110952381D01*
X225619048Y-110904762D01*
X225666667Y-110857143D01*
X225761905Y-110714286D01*
X225809524Y-110523810D01*
X225809524Y-110142857D01*
X225761905Y-110047619D01*
X225714286Y-110000000D01*
X225619048Y-109952381D01*
X225428571Y-109952381D01*
X225333333Y-110000000D01*
X225285714Y-110047619D01*
X225238095Y-110142857D01*
X225238095Y-110380952D01*
X225285714Y-110476190D01*
X225333333Y-110523810D01*
X225428571Y-110571429D01*
X225619048Y-110571429D01*
X225714286Y-110523810D01*
X225761905Y-110476190D01*
X225809524Y-110380952D01*
X223761905Y-106952381D02*
X223761905Y-107761905D01*
X223809524Y-107857143D01*
X223857143Y-107904762D01*
X223952381Y-107952381D01*
X224142858Y-107952381D01*
X224238096Y-107904762D01*
X224285715Y-107857143D01*
X224333334Y-107761905D01*
X224333334Y-106952381D01*
X225333334Y-107952381D02*
X224761905Y-107952381D01*
X225047619Y-107952381D02*
X225047619Y-106952381D01*
X224952381Y-107095238D01*
X224857143Y-107190476D01*
X224761905Y-107238095D01*
X225952381Y-106952381D02*
X226047620Y-106952381D01*
X226142858Y-107000000D01*
X226190477Y-107047619D01*
X226238096Y-107142857D01*
X226285715Y-107333333D01*
X226285715Y-107571429D01*
X226238096Y-107761905D01*
X226190477Y-107857143D01*
X226142858Y-107904762D01*
X226047620Y-107952381D01*
X225952381Y-107952381D01*
X225857143Y-107904762D01*
X225809524Y-107857143D01*
X225761905Y-107761905D01*
X225714286Y-107571429D01*
X225714286Y-107333333D01*
X225761905Y-107142857D01*
X225809524Y-107047619D01*
X225857143Y-107000000D01*
X225952381Y-106952381D01*
X223761905Y-103952381D02*
X223761905Y-104761905D01*
X223809524Y-104857143D01*
X223857143Y-104904762D01*
X223952381Y-104952381D01*
X224142858Y-104952381D01*
X224238096Y-104904762D01*
X224285715Y-104857143D01*
X224333334Y-104761905D01*
X224333334Y-103952381D01*
X225333334Y-104952381D02*
X224761905Y-104952381D01*
X225047619Y-104952381D02*
X225047619Y-103952381D01*
X224952381Y-104095238D01*
X224857143Y-104190476D01*
X224761905Y-104238095D01*
X226285715Y-104952381D02*
X225714286Y-104952381D01*
X226000000Y-104952381D02*
X226000000Y-103952381D01*
X225904762Y-104095238D01*
X225809524Y-104190476D01*
X225714286Y-104238095D01*
X223571405Y-99753881D02*
X223571405Y-100563405D01*
X223619024Y-100658643D01*
X223666643Y-100706262D01*
X223761881Y-100753881D01*
X223952358Y-100753881D01*
X224047596Y-100706262D01*
X224095215Y-100658643D01*
X224142834Y-100563405D01*
X224142834Y-99753881D01*
X225142834Y-100753881D02*
X224571405Y-100753881D01*
X224857119Y-100753881D02*
X224857119Y-99753881D01*
X224761881Y-99896738D01*
X224666643Y-99991976D01*
X224571405Y-100039595D01*
X225523786Y-99849119D02*
X225571405Y-99801500D01*
X225666643Y-99753881D01*
X225904739Y-99753881D01*
X225999977Y-99801500D01*
X226047596Y-99849119D01*
X226095215Y-99944357D01*
X226095215Y-100039595D01*
X226047596Y-100182452D01*
X225476167Y-100753881D01*
X226095215Y-100753881D01*
X223761905Y-97952381D02*
X223761905Y-98761905D01*
X223809524Y-98857143D01*
X223857143Y-98904762D01*
X223952381Y-98952381D01*
X224142858Y-98952381D01*
X224238096Y-98904762D01*
X224285715Y-98857143D01*
X224333334Y-98761905D01*
X224333334Y-97952381D01*
X225333334Y-98952381D02*
X224761905Y-98952381D01*
X225047619Y-98952381D02*
X225047619Y-97952381D01*
X224952381Y-98095238D01*
X224857143Y-98190476D01*
X224761905Y-98238095D01*
X225666667Y-97952381D02*
X226285715Y-97952381D01*
X225952381Y-98333333D01*
X226095239Y-98333333D01*
X226190477Y-98380952D01*
X226238096Y-98428571D01*
X226285715Y-98523810D01*
X226285715Y-98761905D01*
X226238096Y-98857143D01*
X226190477Y-98904762D01*
X226095239Y-98952381D01*
X225809524Y-98952381D01*
X225714286Y-98904762D01*
X225666667Y-98857143D01*
X223761905Y-94952381D02*
X223761905Y-95761905D01*
X223809524Y-95857143D01*
X223857143Y-95904762D01*
X223952381Y-95952381D01*
X224142858Y-95952381D01*
X224238096Y-95904762D01*
X224285715Y-95857143D01*
X224333334Y-95761905D01*
X224333334Y-94952381D01*
X225333334Y-95952381D02*
X224761905Y-95952381D01*
X225047619Y-95952381D02*
X225047619Y-94952381D01*
X224952381Y-95095238D01*
X224857143Y-95190476D01*
X224761905Y-95238095D01*
X226190477Y-95285714D02*
X226190477Y-95952381D01*
X225952381Y-94904762D02*
X225714286Y-95619048D01*
X226333334Y-95619048D01*
X223761905Y-91952381D02*
X223761905Y-92761905D01*
X223809524Y-92857143D01*
X223857143Y-92904762D01*
X223952381Y-92952381D01*
X224142858Y-92952381D01*
X224238096Y-92904762D01*
X224285715Y-92857143D01*
X224333334Y-92761905D01*
X224333334Y-91952381D01*
X225333334Y-92952381D02*
X224761905Y-92952381D01*
X225047619Y-92952381D02*
X225047619Y-91952381D01*
X224952381Y-92095238D01*
X224857143Y-92190476D01*
X224761905Y-92238095D01*
X226238096Y-91952381D02*
X225761905Y-91952381D01*
X225714286Y-92428571D01*
X225761905Y-92380952D01*
X225857143Y-92333333D01*
X226095239Y-92333333D01*
X226190477Y-92380952D01*
X226238096Y-92428571D01*
X226285715Y-92523810D01*
X226285715Y-92761905D01*
X226238096Y-92857143D01*
X226190477Y-92904762D01*
X226095239Y-92952381D01*
X225857143Y-92952381D01*
X225761905Y-92904762D01*
X225714286Y-92857143D01*
X251761905Y-91952381D02*
X251761905Y-92761905D01*
X251809524Y-92857143D01*
X251857143Y-92904762D01*
X251952381Y-92952381D01*
X252142858Y-92952381D01*
X252238096Y-92904762D01*
X252285715Y-92857143D01*
X252333334Y-92761905D01*
X252333334Y-91952381D01*
X253333334Y-92952381D02*
X252761905Y-92952381D01*
X253047619Y-92952381D02*
X253047619Y-91952381D01*
X252952381Y-92095238D01*
X252857143Y-92190476D01*
X252761905Y-92238095D01*
X254190477Y-91952381D02*
X254000000Y-91952381D01*
X253904762Y-92000000D01*
X253857143Y-92047619D01*
X253761905Y-92190476D01*
X253714286Y-92380952D01*
X253714286Y-92761905D01*
X253761905Y-92857143D01*
X253809524Y-92904762D01*
X253904762Y-92952381D01*
X254095239Y-92952381D01*
X254190477Y-92904762D01*
X254238096Y-92857143D01*
X254285715Y-92761905D01*
X254285715Y-92523810D01*
X254238096Y-92428571D01*
X254190477Y-92380952D01*
X254095239Y-92333333D01*
X253904762Y-92333333D01*
X253809524Y-92380952D01*
X253761905Y-92428571D01*
X253714286Y-92523810D01*
X251761905Y-94952381D02*
X251761905Y-95761905D01*
X251809524Y-95857143D01*
X251857143Y-95904762D01*
X251952381Y-95952381D01*
X252142858Y-95952381D01*
X252238096Y-95904762D01*
X252285715Y-95857143D01*
X252333334Y-95761905D01*
X252333334Y-94952381D01*
X253333334Y-95952381D02*
X252761905Y-95952381D01*
X253047619Y-95952381D02*
X253047619Y-94952381D01*
X252952381Y-95095238D01*
X252857143Y-95190476D01*
X252761905Y-95238095D01*
X253666667Y-94952381D02*
X254333334Y-94952381D01*
X253904762Y-95952381D01*
X251761905Y-97952381D02*
X251761905Y-98761905D01*
X251809524Y-98857143D01*
X251857143Y-98904762D01*
X251952381Y-98952381D01*
X252142858Y-98952381D01*
X252238096Y-98904762D01*
X252285715Y-98857143D01*
X252333334Y-98761905D01*
X252333334Y-97952381D01*
X253333334Y-98952381D02*
X252761905Y-98952381D01*
X253047619Y-98952381D02*
X253047619Y-97952381D01*
X252952381Y-98095238D01*
X252857143Y-98190476D01*
X252761905Y-98238095D01*
X253904762Y-98380952D02*
X253809524Y-98333333D01*
X253761905Y-98285714D01*
X253714286Y-98190476D01*
X253714286Y-98142857D01*
X253761905Y-98047619D01*
X253809524Y-98000000D01*
X253904762Y-97952381D01*
X254095239Y-97952381D01*
X254190477Y-98000000D01*
X254238096Y-98047619D01*
X254285715Y-98142857D01*
X254285715Y-98190476D01*
X254238096Y-98285714D01*
X254190477Y-98333333D01*
X254095239Y-98380952D01*
X253904762Y-98380952D01*
X253809524Y-98428571D01*
X253761905Y-98476190D01*
X253714286Y-98571429D01*
X253714286Y-98761905D01*
X253761905Y-98857143D01*
X253809524Y-98904762D01*
X253904762Y-98952381D01*
X254095239Y-98952381D01*
X254190477Y-98904762D01*
X254238096Y-98857143D01*
X254285715Y-98761905D01*
X254285715Y-98571429D01*
X254238096Y-98476190D01*
X254190477Y-98428571D01*
X254095239Y-98380952D01*
X251761905Y-100952381D02*
X251761905Y-101761905D01*
X251809524Y-101857143D01*
X251857143Y-101904762D01*
X251952381Y-101952381D01*
X252142858Y-101952381D01*
X252238096Y-101904762D01*
X252285715Y-101857143D01*
X252333334Y-101761905D01*
X252333334Y-100952381D01*
X253333334Y-101952381D02*
X252761905Y-101952381D01*
X253047619Y-101952381D02*
X253047619Y-100952381D01*
X252952381Y-101095238D01*
X252857143Y-101190476D01*
X252761905Y-101238095D01*
X253809524Y-101952381D02*
X254000000Y-101952381D01*
X254095239Y-101904762D01*
X254142858Y-101857143D01*
X254238096Y-101714286D01*
X254285715Y-101523810D01*
X254285715Y-101142857D01*
X254238096Y-101047619D01*
X254190477Y-101000000D01*
X254095239Y-100952381D01*
X253904762Y-100952381D01*
X253809524Y-101000000D01*
X253761905Y-101047619D01*
X253714286Y-101142857D01*
X253714286Y-101380952D01*
X253761905Y-101476190D01*
X253809524Y-101523810D01*
X253904762Y-101571429D01*
X254095239Y-101571429D01*
X254190477Y-101523810D01*
X254238096Y-101476190D01*
X254285715Y-101380952D01*
X251761905Y-103952381D02*
X251761905Y-104761905D01*
X251809524Y-104857143D01*
X251857143Y-104904762D01*
X251952381Y-104952381D01*
X252142858Y-104952381D01*
X252238096Y-104904762D01*
X252285715Y-104857143D01*
X252333334Y-104761905D01*
X252333334Y-103952381D01*
X252761905Y-104047619D02*
X252809524Y-104000000D01*
X252904762Y-103952381D01*
X253142858Y-103952381D01*
X253238096Y-104000000D01*
X253285715Y-104047619D01*
X253333334Y-104142857D01*
X253333334Y-104238095D01*
X253285715Y-104380952D01*
X252714286Y-104952381D01*
X253333334Y-104952381D01*
X253952381Y-103952381D02*
X254047620Y-103952381D01*
X254142858Y-104000000D01*
X254190477Y-104047619D01*
X254238096Y-104142857D01*
X254285715Y-104333333D01*
X254285715Y-104571429D01*
X254238096Y-104761905D01*
X254190477Y-104857143D01*
X254142858Y-104904762D01*
X254047620Y-104952381D01*
X253952381Y-104952381D01*
X253857143Y-104904762D01*
X253809524Y-104857143D01*
X253761905Y-104761905D01*
X253714286Y-104571429D01*
X253714286Y-104333333D01*
X253761905Y-104142857D01*
X253809524Y-104047619D01*
X253857143Y-104000000D01*
X253952381Y-103952381D01*
X251761905Y-106952381D02*
X251761905Y-107761905D01*
X251809524Y-107857143D01*
X251857143Y-107904762D01*
X251952381Y-107952381D01*
X252142858Y-107952381D01*
X252238096Y-107904762D01*
X252285715Y-107857143D01*
X252333334Y-107761905D01*
X252333334Y-106952381D01*
X252761905Y-107047619D02*
X252809524Y-107000000D01*
X252904762Y-106952381D01*
X253142858Y-106952381D01*
X253238096Y-107000000D01*
X253285715Y-107047619D01*
X253333334Y-107142857D01*
X253333334Y-107238095D01*
X253285715Y-107380952D01*
X252714286Y-107952381D01*
X253333334Y-107952381D01*
X254285715Y-107952381D02*
X253714286Y-107952381D01*
X254000000Y-107952381D02*
X254000000Y-106952381D01*
X253904762Y-107095238D01*
X253809524Y-107190476D01*
X253714286Y-107238095D01*
X251745905Y-109680381D02*
X251745905Y-110489905D01*
X251793524Y-110585143D01*
X251841143Y-110632762D01*
X251936381Y-110680381D01*
X252126858Y-110680381D01*
X252222096Y-110632762D01*
X252269715Y-110585143D01*
X252317334Y-110489905D01*
X252317334Y-109680381D01*
X252745905Y-109775619D02*
X252793524Y-109728000D01*
X252888762Y-109680381D01*
X253126858Y-109680381D01*
X253222096Y-109728000D01*
X253269715Y-109775619D01*
X253317334Y-109870857D01*
X253317334Y-109966095D01*
X253269715Y-110108952D01*
X252698286Y-110680381D01*
X253317334Y-110680381D01*
X253698286Y-109775619D02*
X253745905Y-109728000D01*
X253841143Y-109680381D01*
X254079239Y-109680381D01*
X254174477Y-109728000D01*
X254222096Y-109775619D01*
X254269715Y-109870857D01*
X254269715Y-109966095D01*
X254222096Y-110108952D01*
X253650667Y-110680381D01*
X254269715Y-110680381D01*
X251761905Y-112952381D02*
X251761905Y-113761905D01*
X251809524Y-113857143D01*
X251857143Y-113904762D01*
X251952381Y-113952381D01*
X252142858Y-113952381D01*
X252238096Y-113904762D01*
X252285715Y-113857143D01*
X252333334Y-113761905D01*
X252333334Y-112952381D01*
X252761905Y-113047619D02*
X252809524Y-113000000D01*
X252904762Y-112952381D01*
X253142858Y-112952381D01*
X253238096Y-113000000D01*
X253285715Y-113047619D01*
X253333334Y-113142857D01*
X253333334Y-113238095D01*
X253285715Y-113380952D01*
X252714286Y-113952381D01*
X253333334Y-113952381D01*
X253666667Y-112952381D02*
X254285715Y-112952381D01*
X253952381Y-113333333D01*
X254095239Y-113333333D01*
X254190477Y-113380952D01*
X254238096Y-113428571D01*
X254285715Y-113523810D01*
X254285715Y-113761905D01*
X254238096Y-113857143D01*
X254190477Y-113904762D01*
X254095239Y-113952381D01*
X253809524Y-113952381D01*
X253714286Y-113904762D01*
X253666667Y-113857143D01*
M02*
